<svg width="19" height="20" viewBox="0 0 19 20" fill="none" xmlns="http://www.w3.org/2000/svg">
<path d="M9.41864 0.575195C4.21736 0.575195 0 4.79335 0 9.99561C0 15.1979 4.21736 19.416 9.41864 19.416C14.6199 19.416 18.8373 15.1979 18.8373 9.99561C18.8373 4.79335 14.6199 0.575195 9.41864 0.575195ZM9.41864 17.8179C5.10036 17.8179 1.59781 14.3147 1.59781 9.99561C1.59781 5.67652 5.10036 2.1733 9.41864 2.1733C13.7369 2.1733 17.2395 5.67652 17.2395 9.99561C17.2395 14.3147 13.7369 17.8179 9.41864 17.8179ZM9.53637 6.61645C10.6506 6.61645 11.4075 7.32719 11.4916 8.37016C11.4979 8.45848 11.5715 8.52577 11.6598 8.52577H12.8518C12.9065 8.52577 12.9506 8.48161 12.9506 8.42694C12.9506 6.60384 11.5126 5.32746 9.53007 5.32746C7.21956 5.32746 5.88665 6.88771 5.88665 9.46571V10.5655C5.88665 13.1245 7.21956 14.6638 9.53007 14.6638C11.5063 14.6638 12.9506 13.4273 12.9506 11.6904C12.9506 11.6358 12.9065 11.5916 12.8518 11.5916H11.6577C11.5694 11.5916 11.4979 11.6589 11.4895 11.7451C11.4012 12.7145 10.6464 13.3811 9.53427 13.3811C8.16142 13.3811 7.38775 12.3738 7.38775 10.5718V9.46571C7.38985 7.6363 8.16562 6.61645 9.53637 6.61645Z" fill="white"/>
</svg>
