<svg width="885" height="1084" viewBox="0 0 885 1084" fill="none" xmlns="http://www.w3.org/2000/svg">
<path d="M428 0H772V895.046L428 1084L84 895.046V0H428Z" fill="url(#paint0_linear_33_78)"/>
<g clip-path="url(#clip0_33_78)">
<path d="M157.992 590.5C157.992 433.372 285.372 305.992 442.5 305.992C599.628 305.992 727.008 433.372 727.008 590.5C727.008 747.628 599.628 875.008 442.5 875.008C285.372 875.008 157.992 747.628 157.992 590.5ZM442.5 863.079C593.042 863.079 715.079 741.042 715.079 590.5C715.079 439.958 593.042 317.921 442.5 317.921C291.958 317.921 169.921 439.958 169.921 590.5C169.921 741.042 291.958 863.079 442.5 863.079Z" fill="#111827"/>
<g clip-path="url(#clip1_33_78)">
<g clip-path="url(#clip2_33_78)">
<path d="M345.26 534.353V646.647L442.495 702.783L539.746 646.652V534.353L442.495 478.211L345.26 534.353ZM498.745 622.975L442.495 655.445L386.255 622.975V558.025L442.495 525.549L498.745 558.025V622.975Z" fill="#C2C2C2"/>
<path d="M442.495 350.025L234.237 470.267V710.738L442.495 830.975L650.762 710.738V470.267L442.495 350.025ZM608.222 686.175L442.495 781.856L276.783 686.175V494.814L442.495 399.134L608.222 494.814V686.175Z" fill="#111827"/>
<path d="M289.947 502.413V678.576L442.495 766.653L595.058 678.576V502.413L442.495 414.337L289.947 502.413ZM552.91 654.251L442.495 717.986L332.096 654.251V526.754L442.495 463.008L552.91 526.754V654.251Z" fill="#111827"/>
</g>
</g>
<path d="M654.536 872.671L669.183 858.023C670.355 856.851 672.254 856.851 673.426 858.023L688.083 872.68C689.255 873.852 689.255 875.751 688.083 876.923L673.435 891.57C672.264 892.742 670.364 892.742 669.193 891.57L654.536 876.913C653.364 875.742 653.364 873.842 654.536 872.671Z" stroke="#C2C2C2" stroke-width="2"/>
<path d="M179.536 893.183L194.183 878.536C195.355 877.364 197.254 877.364 198.426 878.536L213.083 893.193C214.255 894.364 214.255 896.264 213.083 897.435L198.435 912.083C197.264 913.255 195.364 913.255 194.193 912.083L179.536 897.426C178.364 896.254 178.364 894.355 179.536 893.183Z" stroke="#2AB7CE" stroke-width="2"/>
<path d="M717.536 753.183L732.183 738.536C733.355 737.364 735.254 737.364 736.426 738.536L751.083 753.193C752.255 754.364 752.255 756.264 751.083 757.435L736.435 772.083C735.264 773.255 733.364 773.255 732.193 772.083L717.536 757.426C716.364 756.254 716.364 754.355 717.536 753.183Z" stroke="#2AB7CE" stroke-width="2"/>
</g>
<defs>
<linearGradient id="paint0_linear_33_78" x1="428" y1="110.5" x2="428" y2="1084" gradientUnits="userSpaceOnUse">
<stop stop-color="#D2ECFA" stop-opacity="0"/>
<stop offset="0.81805" stop-color="#B4D9EE"/>
</linearGradient>
<clipPath id="clip0_33_78">
<rect width="885" height="885" fill="white" transform="translate(0 148)"/>
</clipPath>
<clipPath id="clip1_33_78">
<rect width="416.525" height="480.95" fill="white" transform="translate(234.237 350.025)"/>
</clipPath>
<clipPath id="clip2_33_78">
<rect width="416.525" height="480.95" fill="white" transform="translate(234.237 350.025)"/>
</clipPath>
</defs>
</svg>
