<svg width="571" height="571" viewBox="0 0 571 571" fill="none" xmlns="http://www.w3.org/2000/svg">
<path d="M0.991699 285.5C0.991699 128.372 128.372 0.991699 285.5 0.991699C442.628 0.991699 570.008 128.372 570.008 285.5C570.008 442.628 442.628 570.008 285.5 570.008C128.372 570.008 0.991699 442.628 0.991699 285.5ZM285.5 558.079C436.042 558.079 558.079 436.042 558.079 285.5C558.079 134.958 436.042 12.921 285.5 12.921C134.958 12.921 12.921 134.958 12.921 285.5C12.921 436.042 134.958 558.079 285.5 558.079Z" fill="#111827"/>
<g clip-path="url(#clip0_2_2)">
<g clip-path="url(#clip1_2_2)">
<path d="M188.26 229.353V341.647L285.495 397.783L382.746 341.652V229.353L285.495 173.211L188.26 229.353ZM341.745 317.975L285.495 350.445L229.255 317.975V253.025L285.495 220.549L341.745 253.025V317.975Z" fill="#C2C2C2"/>
<path d="M285.495 45.0247L77.2373 165.267V405.738L285.495 525.975L493.762 405.738V165.267L285.495 45.0247ZM451.222 381.175L285.495 476.856L119.783 381.175V189.814L285.495 94.1339L451.222 189.814V381.175Z" fill="#111827"/>
<path d="M132.947 197.413V373.576L285.495 461.653L438.058 373.576V197.413L285.495 109.337L132.947 197.413ZM395.91 349.251L285.495 412.986L175.096 349.251V221.754L285.495 158.008L395.91 221.754V349.251Z" fill="#111827"/>
</g>
</g>
<defs>
<clipPath id="clip0_2_2">
<rect width="416.525" height="480.95" fill="white" transform="translate(77.2373 45.0247)"/>
</clipPath>
<clipPath id="clip1_2_2">
<rect width="416.525" height="480.95" fill="white" transform="translate(77.2373 45.0247)"/>
</clipPath>
</defs>
</svg>
