<svg width="21" height="21" viewBox="0 0 21 21" fill="none" xmlns="http://www.w3.org/2000/svg">
<path d="M17.8313 18.375C15.95 18.375 14.1163 17.9594 12.3301 17.1281C10.5434 16.2969 8.96108 15.1885 7.58325 13.8031C6.20483 12.4177 5.0965 10.8316 4.25825 9.04488C3.41942 7.25871 3 5.425 3 3.54375V3.08438C3 2.92396 3.01458 2.77083 3.04375 2.625H8.1625L8.97187 7.02187L6.47812 9.5375C7.09062 10.5875 7.86004 11.5719 8.78638 12.4906C9.71212 13.4094 10.7292 14.2042 11.8375 14.875L14.375 12.3375L18.75 13.2125V18.3313C18.6042 18.3458 18.451 18.3569 18.2906 18.3645C18.1302 18.3715 17.9771 18.375 17.8313 18.375ZM5.64688 7.875L7.09063 6.43125L6.71875 4.375H4.77188C4.84479 4.97292 4.94687 5.56354 5.07812 6.14688C5.20937 6.73021 5.39896 7.30625 5.64688 7.875ZM13.4781 15.7063C14.0469 15.9542 14.6267 16.151 15.2176 16.2969C15.808 16.4427 16.4021 16.5375 17 16.5813V14.6562L14.9437 14.2406L13.4781 15.7063Z" fill="#565656"/>
</svg>
