<svg width="80" height="80" viewBox="0 0 80 80" fill="none" xmlns="http://www.w3.org/2000/svg">
<path d="M75 47.8799V51.0624C75 56.8299 68.6375 62.7949 60.88 62.7949H19.12C11.265 62.7949 5 56.9274 5 51.0599V47.8799L75 47.8799Z" fill="#9D5125"/>
<path d="M31.945 16.955C35.3925 16.9427 38.7693 17.9329 41.6641 19.8051C44.559 21.6773 46.8472 24.3508 48.25 27.5C49.7722 26.4579 51.5753 25.9034 53.42 25.91C55.7757 25.8857 58.0461 26.7904 59.7396 28.4281C61.433 30.0659 62.4131 32.3048 62.4675 34.66C65.7107 35.0346 68.7263 36.5134 71.0083 38.8481C73.2903 41.1829 74.6997 44.2316 75 47.4825V48.675C75 54.5425 68.6375 60.4075 60.78 60.4075H19.12C11.265 60.4075 5 54.54 5 48.675V47.4825C5.1644 44.7993 6.10792 42.2224 7.71494 40.0674C9.32197 37.9124 11.5227 36.273 14.0475 35.35V34.85C14.0379 32.4971 14.4943 30.1656 15.3904 27.99C16.2864 25.8143 17.6044 23.8377 19.2683 22.174C20.9322 20.5104 22.909 19.1927 25.0848 18.2969C27.2605 17.4011 29.5921 16.9451 31.945 16.955Z" fill="#F58535"/>
<path d="M22.5 37.7376L17.8275 54.0451H20.61L21.705 50.0676H26.4775L27.4775 54.0451H30.25L25.875 37.7376H22.5ZM22.1025 47.9876L24.1025 39.9326L25.9925 47.9876H22.1025ZM41.9875 50.5651H41.89L39.7025 37.7376H36.9175L34.83 50.4651H34.73L32.5425 37.7376H29.9575L33.14 54.1426H36.1225L38.21 41.8151H38.31L40.3975 54.1426H43.48L46.7625 37.7376H44.0775L41.9875 50.5651ZM55.2125 45.1951L53.4225 44.5976C51.6325 43.9026 50.9375 43.0976 50.9375 41.7151C50.9043 41.4014 50.9374 41.0842 51.0348 40.7841C51.1321 40.4841 51.2914 40.2078 51.5024 39.9733C51.7134 39.7388 51.9713 39.5513 52.2595 39.4229C52.5476 39.2946 52.8596 39.2283 53.175 39.2283C53.4905 39.2283 53.8024 39.2946 54.0906 39.4229C54.3787 39.5513 54.6367 39.7388 54.8476 39.9733C55.0586 40.2078 55.218 40.4841 55.3153 40.7841C55.4126 41.0842 55.4457 41.4014 55.4125 41.7151V42.0126H58V41.6151C58 39.9251 57.6025 37.3401 53.3275 37.3401C52.6752 37.2549 52.0121 37.3139 51.385 37.5127C50.7579 37.7115 50.182 38.0455 49.6979 38.4909C49.2138 38.9364 48.8333 39.4826 48.5831 40.0911C48.333 40.6995 48.2193 41.3554 48.25 42.0126C48.1936 43.0526 48.5146 44.078 49.154 44.9002C49.7934 45.7224 50.7081 46.2861 51.73 46.4876L53.52 47.0851C54.2083 47.1755 54.837 47.5229 55.2798 48.0575C55.7226 48.5922 55.9469 49.2745 55.9075 49.9676C55.9178 50.2923 55.8598 50.6155 55.7372 50.9164C55.6147 51.2172 55.4303 51.489 55.196 51.714C54.9618 51.9391 54.6828 52.1125 54.3773 52.2229C54.0718 52.3333 53.7465 52.3784 53.4225 52.3551C51.6325 52.3551 50.7375 51.3609 50.7375 49.3726V48.9751H48.1525V49.3726C48.0705 50.0453 48.1427 50.7278 48.3636 51.3684C48.5845 52.009 48.9483 52.591 49.4275 53.0701C49.9066 53.5493 50.4886 53.9131 51.1292 54.134C51.7698 54.3549 52.4523 54.4271 53.125 54.3451C56.405 54.3451 58.5925 52.9526 58.5925 49.4726C58.6065 48.4798 58.2781 47.5124 57.6625 46.7333C57.0469 45.9543 56.1817 45.411 55.2125 45.1951Z" fill="white"/>
</svg>
