<svg width="80" height="80" viewBox="0 0 80 80" fill="none" xmlns="http://www.w3.org/2000/svg">
<path d="M41.55 75L39.6725 74.3774C39.6725 74.3774 39.9225 64.8774 36.485 64.2099C34.235 61.59 36.8175 -47.6425 45.0425 63.8374C43.4819 64.629 42.2879 65.9933 41.71 67.645C41.4003 70.0843 41.3466 72.5494 41.55 75Z" fill="url(#paint0_linear_51_1469)"/>
<path d="M42.565 65.8226C47.5639 62.0595 51.3923 56.955 53.605 51.1023C55.8177 45.2496 56.324 38.8891 55.065 32.7601C51.39 16.5476 42.6875 11.2176 41.75 9.18262C40.9411 7.91544 40.2507 6.57645 39.6875 5.18262L40.38 50.3551C40.38 50.3551 38.945 64.1601 42.565 65.8226Z" fill="url(#paint1_linear_51_1469)"/>
<path d="M38.7175 66.4225C38.7175 66.4225 23.415 56 24.3 37.5625C24.3826 32.0041 25.657 26.5282 28.0373 21.5045C30.4176 16.4809 33.8482 12.0266 38.0975 8.4425C38.5941 8.02062 38.9886 7.49169 39.2515 6.89545C39.5143 6.29922 39.6386 5.65117 39.615 5C40.5675 7.05 40.4125 35.6075 40.5125 38.9475C40.9 51.94 39.79 63.97 38.7175 66.4225Z" fill="url(#paint2_linear_51_1469)"/>
<defs>
<linearGradient id="paint0_linear_51_1469" x1="28.9291" y1="40.6307" x2="50.5083" y2="47.9535" gradientUnits="userSpaceOnUse">
<stop offset="0.231" stop-color="#999875"/>
<stop offset="0.563" stop-color="#9B9977"/>
<stop offset="0.683" stop-color="#A09F7E"/>
<stop offset="0.768" stop-color="#A9A889"/>
<stop offset="0.837" stop-color="#B7B69A"/>
<stop offset="0.896" stop-color="#C9C7B0"/>
<stop offset="0.948" stop-color="#DEDDCB"/>
<stop offset="0.994" stop-color="#F8F6EB"/>
<stop offset="1" stop-color="#FBF9EF"/>
</linearGradient>
<linearGradient id="paint1_linear_51_1469" x1="36.8424" y1="4.85983" x2="46.3824" y2="64.4322" gradientUnits="userSpaceOnUse">
<stop stop-color="#48A547"/>
<stop offset="1" stop-color="#3F9143"/>
</linearGradient>
<linearGradient id="paint2_linear_51_1469" x1="22.9837" y1="39.3876" x2="48.5852" y2="30.8136" gradientUnits="userSpaceOnUse">
<stop stop-color="#41A247"/>
<stop offset="0.352" stop-color="#4BA74B"/>
<stop offset="0.956" stop-color="#67B554"/>
<stop offset="1" stop-color="#69B655"/>
</linearGradient>
</defs>
</svg>
