<svg width="35" height="38" viewBox="0 0 35 38" fill="none" xmlns="http://www.w3.org/2000/svg">
<path d="M32.9839 5.24444H31.3877V3.67205V3.66818V0.324932C31.3877 0.146721 31.2451 0 31.0669 0H4.10364C3.92543 0 3.78285 0.146438 3.78285 0.324932V5.24446H2.02005C0.907146 5.24446 0 6.14771 0 7.26062V29.9495C0 31.0592 0.907075 31.966 2.02005 31.966H14.046L13.1191 36.4617H10.4138C10.2356 36.4617 10.0889 36.6042 10.0889 36.7825C10.0889 36.9607 10.2353 37.1074 10.4138 37.1074H24.5865C24.7686 37.1074 24.9115 36.961 24.9115 36.7825C24.9115 36.6045 24.7689 36.4617 24.5865 36.4617H21.8813L20.9543 31.966H32.9838C34.0967 31.966 35 31.0589 35 29.9495V7.26062C35 6.14771 34.093 5.24444 32.9839 5.24444ZM29.9695 1.98048C29.9695 2.57066 29.4901 3.05003 28.8999 3.05003C28.3142 3.05003 27.8347 2.57065 27.8347 1.98048C27.8347 1.39417 28.3141 0.915103 28.8999 0.915103C29.4904 0.915103 29.9695 1.3942 29.9695 1.98048ZM27.4582 1.98048C27.4582 2.57066 26.9788 3.05003 26.3886 3.05003C25.8029 3.05003 25.3235 2.57065 25.3235 1.98048C25.3235 1.39417 25.8028 0.915103 26.3886 0.915103C26.9791 0.915103 27.4582 1.3942 27.4582 1.98048ZM24.943 1.98048C24.943 2.57066 24.4677 3.05003 23.8776 3.05003C23.2919 3.05003 22.8124 2.57065 22.8124 1.98048C22.8124 1.39417 23.2918 0.915103 23.8776 0.915103C24.4678 0.915103 24.943 1.3942 24.943 1.98048ZM5.58133 1.65969H21.806C21.9839 1.65969 22.1304 1.80226 22.1304 1.98048C22.1304 2.16256 21.9839 2.30541 21.806 2.30541H5.58133C5.40312 2.30541 5.26054 2.16284 5.26054 1.98048C5.26027 1.80227 5.40284 1.65969 5.58133 1.65969ZM4.4286 3.99274H30.7419V25.7543H4.4286V3.99274ZM21.2191 36.4611H13.7802L14.703 31.9654H20.2958L21.2191 36.4611ZM34.3542 29.9494C34.3542 30.702 33.7358 31.3204 32.9837 31.3204L2.02051 31.3201C1.26402 31.3201 0.645888 30.7056 0.645888 29.9491L0.646164 7.26017C0.646164 6.50368 1.26397 5.88972 2.02078 5.88972H3.78358V7.11757H2.06061C1.87853 7.11757 1.73567 7.26014 1.73567 7.43836V28.1864C1.73567 28.3643 1.87824 28.5107 2.06061 28.5107H32.9446C33.1228 28.5107 33.2659 28.3643 33.2659 28.1864L33.2654 7.43836C33.2654 7.26015 33.1228 7.11757 32.944 7.11757H31.3874V5.88972H32.9835C33.74 5.88972 34.354 6.50366 34.354 7.26017L34.3542 29.9494Z" fill="#B49386"/>
<path d="M19.6357 29.5517H15.3638C15.185 29.5517 15.0405 29.6954 15.0405 29.8742C15.0405 30.0529 15.185 30.1974 15.3638 30.1974H19.6357C19.8145 30.1974 19.9584 30.0529 19.9584 29.8742C19.9584 29.6965 19.8139 29.5517 19.6357 29.5517Z" fill="#B49386"/>
<path d="M23.4575 1.98047C23.4575 2.21422 23.6437 2.40432 23.8775 2.40432C24.1112 2.40432 24.2977 2.21422 24.2977 1.98047C24.2977 1.75087 24.1112 1.5605 23.8775 1.5605C23.6437 1.56078 23.4575 1.75087 23.4575 1.98047Z" fill="#B49386"/>
<path d="M25.9688 1.98047C25.9688 2.21422 26.1586 2.40432 26.3887 2.40432C26.6225 2.40432 26.809 2.21422 26.8126 1.98047C26.8126 1.75087 26.6225 1.5605 26.3887 1.5605C26.1588 1.56078 25.9688 1.75087 25.9688 1.98047Z" fill="#B49386"/>
<path d="M28.4795 1.98047C28.4795 2.21422 28.6693 2.40432 28.8995 2.40432C29.1335 2.40432 29.3233 2.21422 29.3233 1.98047C29.3233 1.75087 29.1335 1.5605 28.8995 1.5605C28.6696 1.56078 28.4795 1.75087 28.4795 1.98047Z" fill="#B49386"/>
<path d="M10.4297 13.1905L16.4901 15.9237L24.1787 8.23508L10.4297 13.1905Z" fill="#B49386"/>
<path d="M19.5676 22.3207L24.6139 8.71458L16.9458 16.3834L19.5676 22.3207Z" fill="#B49386"/>
</svg>
