<svg width="80" height="80" viewBox="0 0 80 80" fill="none" xmlns="http://www.w3.org/2000/svg">
<path d="M22.5 34.25C24.8333 24.9167 30.6667 20.25 40 20.25C54 20.25 55.75 30.75 62.75 32.5C67.4167 33.6667 71.5 31.9167 75 27.25C72.6667 36.5833 66.8333 41.25 57.5 41.25C43.5 41.25 41.75 30.75 34.75 29C30.0833 27.8333 26 29.5833 22.5 34.25ZM5 55.25C7.33333 45.9167 13.1667 41.25 22.5 41.25C36.5 41.25 38.25 51.75 45.25 53.5C49.9167 54.6667 54 52.9167 57.5 48.25C55.1667 57.5833 49.3333 62.25 40 62.25C26 62.25 24.25 51.75 17.25 50C12.5833 48.8333 8.5 50.5833 5 55.25Z" fill="#44A8B3"/>
</svg>
