<svg width="80" height="80" viewBox="0 0 80 80" fill="none" xmlns="http://www.w3.org/2000/svg">
<path d="M14.5 61.5001L14.925 60.9076L34.975 22.8726L35.0175 22.4701L26.18 5.8701C26.0182 5.56654 25.7651 5.32154 25.4564 5.16976C25.1477 5.01797 24.7991 4.9671 24.4599 5.02432C24.1207 5.08154 23.8081 5.24397 23.5663 5.48862C23.3245 5.73327 23.1657 6.04776 23.1125 6.3876L14.5 61.5001Z" fill="#FFC24A"/>
<path d="M14.75 61.05L15.07 60.425L34.9125 22.785L26.0975 6.11997C25.9521 5.83015 25.7168 5.59524 25.4267 5.45042C25.1366 5.3056 24.8074 5.25868 24.4884 5.31668C24.1694 5.37468 23.8778 5.53448 23.6572 5.77214C23.4367 6.0098 23.299 6.31253 23.265 6.63497L14.75 61.05Z" fill="#FFA712"/>
<path d="M41.46 35.025L48.04 28.275L41.4575 15.7225C41.3126 15.4524 41.0972 15.2266 40.8342 15.0692C40.5711 14.9117 40.2703 14.8286 39.9638 14.8286C39.6572 14.8286 39.3564 14.9117 39.0934 15.0692C38.8303 15.2266 38.6149 15.4524 38.47 15.7225L34.9525 22.4275V23L41.46 35.025Z" fill="#F4BD62"/>
<path d="M41.3425 34.7501L47.74 28.2001L41.3425 16.0001C41.2378 15.736 41.0589 15.5078 40.8275 15.3431C40.596 15.1784 40.3219 15.0841 40.0381 15.0717C39.7543 15.0593 39.4729 15.1292 39.228 15.2731C38.983 15.417 38.7849 15.6286 38.6575 15.8826L35.1225 22.7051L35.0175 23.0526L41.3425 34.7501Z" fill="#FFA50E"/>
<path d="M14.505 61.5024L14.6975 61.3074L15.395 61.0249L41.045 35.4699L41.37 34.5849L34.9725 22.3899L14.505 61.5024Z" fill="#F6820C"/>
<path d="M42.28 74.3901L65.5 61.4426L58.865 20.6151C58.8174 20.3272 58.6915 20.0581 58.501 19.8372C58.3105 19.6163 58.0628 19.4521 57.7851 19.3627C57.5074 19.2733 57.2105 19.2622 56.9269 19.3305C56.6433 19.3989 56.384 19.544 56.1775 19.7501L14.5 61.5001L37.5825 74.3876C38.3001 74.788 39.1082 74.9982 39.93 74.9982C40.7518 74.9982 41.5599 74.788 42.2775 74.3876" fill="#FDE068"/>
<path d="M65.2875 61.335L58.7075 20.815C58.6959 20.5397 58.6029 20.274 58.4402 20.0517C58.2775 19.8293 58.0526 19.6601 57.7937 19.5656C57.5349 19.4711 57.2539 19.4556 56.9862 19.5209C56.7185 19.5862 56.4762 19.7294 56.29 19.9325L14.75 61.4225L37.5775 74.1725C38.2894 74.5696 39.0911 74.7781 39.9062 74.7781C40.7214 74.7781 41.5231 74.5696 42.235 74.1725L65.2875 61.335Z" fill="#FCCA3F"/>
<path d="M42.28 73.9998C41.5624 74.4002 40.7543 74.6104 39.9325 74.6104C39.1107 74.6104 38.3026 74.4002 37.585 73.9998L14.69 61.3048L14.5 61.4998L37.5825 74.3873C38.3001 74.7877 39.1082 74.9979 39.93 74.9979C40.7518 74.9979 41.5599 74.7877 42.2775 74.3873L65.5 61.4423L65.4425 61.0923L42.28 73.9998Z" fill="#EEAB37"/>
</svg>
