<svg width="80" height="80" viewBox="0 0 80 80" fill="none" xmlns="http://www.w3.org/2000/svg">
<path d="M74.685 34.91C73.7244 28.4353 70.9748 22.3575 66.746 17.3614C62.5171 12.3653 56.977 8.64945 50.75 6.63252C48.3785 5.87946 45.9369 5.36852 43.4625 5.10752C42.805 5.04002 38.2825 4.96502 37.7125 5.02002C37.5625 5.02002 37.0825 5.08002 36.6525 5.11502C31.6676 5.59751 26.8438 7.14161 22.5054 9.64352C18.1669 12.1454 14.4143 15.5472 11.5 19.62C8.2399 24.145 6.12067 29.3903 5.32248 34.91C5.05358 36.5926 4.94559 38.297 4.99998 40C4.94273 41.7053 5.0482 43.4122 5.31498 45.0975C6.27382 51.5734 9.02273 57.6527 13.2518 62.6499C17.4808 67.6471 23.0218 71.3635 29.25 73.38C31.6545 74.1419 34.1308 74.6554 36.64 74.9125C38.8734 75.03 41.1115 75.03 43.345 74.9125C47.7427 74.4825 52.0207 73.2317 55.9575 71.225C56.5575 70.9175 56.675 70.835 56.5925 70.7675C56.51 70.7 53.9725 67.285 50.8925 63.125L45.295 55.565L38.295 45.185C34.435 39.48 31.26 34.815 31.2325 34.815C31.205 34.815 31.1775 39.4175 31.165 45.05C31.3435 48.5495 31.2934 52.057 31.015 55.55C30.8948 55.8227 30.6811 56.0435 30.4125 56.1725C30.1925 56.2825 30 56.3025 28.9675 56.3025H27.785L27.47 56.105C27.2748 55.9823 27.116 55.8097 27.01 55.605L26.8675 55.2975L26.88 41.58L26.9025 27.855L27.1125 27.5875C27.2542 27.4209 27.4233 27.2797 27.6125 27.17C27.8925 27.035 28.0025 27.02 29.185 27.02C30.5825 27.02 30.815 27.075 31.185 27.4725C31.2875 27.5825 35.085 33.3 39.6275 40.19C44.17 47.08 50.3775 56.4875 53.4375 61.105L58.975 69.5L59.255 69.315C61.9237 67.5406 64.3427 65.4167 66.4475 63C70.8573 57.9534 73.7175 51.7417 74.685 45.11C74.9526 43.4206 75.058 41.7095 75 40C75.0568 38.2972 74.9514 36.5928 74.685 34.91ZM52.7825 39.5475L52.7625 51.85L50.5925 48.525L48.4175 45.2V36.25C48.4175 30.47 48.445 27.22 48.485 27.0625C48.5338 26.8804 48.619 26.7101 48.7354 26.5619C48.8519 26.4137 48.9971 26.2905 49.1625 26.2C49.4425 26.055 49.545 26.0425 50.62 26.0425C51.62 26.0425 51.81 26.055 52.035 26.18C52.1986 26.2614 52.3442 26.3748 52.4631 26.5135C52.5821 26.6522 52.672 26.8134 52.7275 26.9875C52.7825 27.1725 52.795 30.975 52.7825 39.5475Z" fill="black"/>
</svg>
