<svg width="46" height="40" viewBox="0 0 46 40" fill="none" xmlns="http://www.w3.org/2000/svg">
<path d="M1.63265 7.34694H44.0816C44.9834 7.34694 45.7143 6.61602 45.7143 5.71429V1.63265C45.7143 0.730918 44.9834 0 44.0816 0H1.63265C0.730918 0 0 0.730918 0 1.63265V5.71429C0 6.61602 0.730918 7.34694 1.63265 7.34694ZM1.63265 23.6735H44.0816C44.9834 23.6735 45.7143 22.9426 45.7143 22.0408V17.9592C45.7143 17.0574 44.9834 16.3265 44.0816 16.3265H1.63265C0.730918 16.3265 0 17.0574 0 17.9592V22.0408C0 22.9426 0.730918 23.6735 1.63265 23.6735ZM1.63265 40H44.0816C44.9834 40 45.7143 39.2691 45.7143 38.3673V34.2857C45.7143 33.384 44.9834 32.6531 44.0816 32.6531H1.63265C0.730918 32.6531 0 33.384 0 34.2857V38.3673C0 39.2691 0.730918 40 1.63265 40Z" fill="#00D1CD"/>
</svg>
