<svg width="80" height="80" viewBox="0 0 80 80" fill="none" xmlns="http://www.w3.org/2000/svg">
<path d="M59.5675 20.6075C61.6957 21.1026 63.6295 22.2169 65.125 23.81C65.9488 24.6721 66.6641 25.6317 67.255 26.6675C67.2825 26.78 63.42 29.375 61.0775 30.8225C60.9925 30.88 60.655 30.5125 60.2725 29.9475C59.8446 29.2119 59.2372 28.5968 58.5071 28.1596C57.777 27.7224 56.948 27.4774 56.0975 27.4475C53.405 27.2625 51.67 28.6725 51.6825 31.03C51.6593 31.6091 51.7913 32.184 52.065 32.695C52.6575 33.92 53.7575 34.655 57.2125 36.1525C63.5725 38.89 66.3025 40.695 67.9875 43.26C68.94 44.8806 69.5266 46.6899 69.7062 48.5611C69.8859 50.4323 69.6542 52.3202 69.0275 54.0925C68.1662 56.036 66.8004 57.7137 65.0718 58.9512C63.3433 60.1887 61.315 60.941 59.1975 61.13C56.9467 61.3881 54.6725 61.3646 52.4275 61.06C48.9888 60.4949 45.821 58.8445 43.3875 56.35C42.468 55.3146 41.6896 54.1621 41.0725 52.9225C41.332 52.7294 41.6052 52.5557 41.89 52.4025C42.285 52.1775 43.78 51.3175 45.19 50.5L47.75 49L48.285 49.78C49.1861 51.0686 50.3331 52.1663 51.66 53.01C53.0001 53.745 54.518 54.0933 56.0445 54.0161C57.571 53.9388 59.046 53.439 60.305 52.5725C60.9545 51.9395 61.3605 51.0981 61.4519 50.1958C61.5433 49.2935 61.3143 48.3879 60.805 47.6375C60.115 46.65 58.705 45.82 54.6975 44.0825C51.5551 43.0229 48.693 41.2666 46.325 38.945C45.1973 37.6599 44.3645 36.1436 43.885 34.5025C43.5304 32.6329 43.4781 30.7186 43.73 28.8325C44.2005 26.6621 45.3268 24.6888 46.9563 23.1799C48.5859 21.6711 50.6399 20.6998 52.84 20.3975C55.0804 20.1298 57.3482 20.2005 59.5675 20.6075V20.6075ZM38.71 24.315L38.7375 27.95H27.1625V60.82H19V27.9575H7.42502V24.3875C7.39424 23.1649 7.42761 21.9415 7.52502 20.7225C7.56752 20.665 14.605 20.6375 23.1375 20.6525L38.665 20.695L38.71 24.315Z" fill="#007ACC"/>
</svg>
