<svg width="41" height="40" viewBox="0 0 41 40" fill="none" xmlns="http://www.w3.org/2000/svg">
<path d="M24.699 19.9972L39.0205 5.70893C39.6477 5.08177 40 4.23116 40 3.34422C40 2.45728 39.6477 1.60666 39.0205 0.979498C38.3933 0.352336 37.5427 0 36.6558 0C35.7688 0 34.9182 0.352336 34.2911 0.979498L20.0028 15.301L5.71462 0.979498C5.08746 0.352336 4.23684 -6.60822e-09 3.3499 0C2.46296 6.60823e-09 1.61234 0.352336 0.985182 0.979498C0.35802 1.60666 0.00568399 2.45728 0.00568398 3.34422C0.00568398 4.23116 0.35802 5.08177 0.985182 5.70893L15.3067 19.9972L0.985182 34.2854C0.673012 34.595 0.425236 34.9634 0.256146 35.3692C0.0870565 35.7751 0 36.2104 0 36.6501C0 37.0898 0.0870565 37.5251 0.256146 37.931C0.425236 38.3368 0.673012 38.7052 0.985182 39.0148C1.2948 39.327 1.66317 39.5748 2.06903 39.7439C2.4749 39.9129 2.91022 40 3.3499 40C3.78958 40 4.2249 39.9129 4.63077 39.7439C5.03663 39.5748 5.405 39.327 5.71462 39.0148L20.0028 24.6933L34.2911 39.0148C34.6007 39.327 34.9691 39.5748 35.3749 39.7439C35.7808 39.9129 36.2161 40 36.6558 40C37.0955 40 37.5308 39.9129 37.9367 39.7439C38.3425 39.5748 38.7109 39.327 39.0205 39.0148C39.3327 38.7052 39.5805 38.3368 39.7495 37.931C39.9186 37.5251 40.0057 37.0898 40.0057 36.6501C40.0057 36.2104 39.9186 35.7751 39.7495 35.3692C39.5805 34.9634 39.3327 34.595 39.0205 34.2854L24.699 19.9972Z" fill="#00D1CD"/>
</svg>
