<svg width="20" height="15" viewBox="0 0 20 15" fill="none" xmlns="http://www.w3.org/2000/svg">
<path d="M17.228 0H1.7822C0.779714 0 0 0.816843 0 1.7822V12.4754C0 13.4779 0.779714 14.2576 1.7822 14.2576H17.228C18.1933 14.2576 19.0102 13.4779 19.0102 12.4754V1.7822C19.0102 0.816843 18.1933 0 17.228 0ZM17.228 1.7822V3.3045C16.374 4.00996 15.0373 5.04958 12.2155 7.27733C11.5843 7.76001 10.3591 8.94815 9.50509 8.91102C8.61399 8.94815 7.38872 7.76001 6.75752 7.27733C3.9357 5.04958 2.59905 4.00996 1.7822 3.3045V1.7822H17.228ZM1.7822 12.4754V5.60652C2.59905 6.27484 3.82431 7.2402 5.64365 8.68824C6.46049 9.31944 7.90853 10.7304 9.50509 10.6932C11.0645 10.7304 12.4754 9.31944 13.3294 8.68824C15.1487 7.2402 16.374 6.27484 17.228 5.60652V12.4754H1.7822Z" fill="#565656"/>
</svg>
