<svg width="80" height="80" viewBox="0 0 80 80" fill="none" xmlns="http://www.w3.org/2000/svg">
<path d="M28.3575 7.08501L49.0325 7.08501L27.57 70.6725C27.3507 71.3273 26.9313 71.8966 26.3711 72.3003C25.8109 72.704 25.138 72.9216 24.4475 72.9225H8.35753C7.83507 72.9214 7.32039 72.7959 6.85608 72.5563C6.39178 72.3167 5.9912 71.9701 5.68751 71.5449C5.38381 71.1198 5.18573 70.6285 5.10965 70.1116C5.03357 69.5947 5.08169 69.0671 5.25003 68.5725L25.25 9.32251C25.4694 8.66776 25.8887 8.09839 26.449 7.6947C27.0092 7.29102 27.682 7.07339 28.3725 7.07251L28.3575 7.08501Z" fill="url(#paint0_linear_51_1477)"/>
<path d="M58.4 49.7349H25.6175C25.3128 49.7348 25.0151 49.8265 24.7633 49.9979C24.5114 50.1694 24.317 50.4127 24.2053 50.6962C24.0937 50.9797 24.0699 51.2902 24.1372 51.5874C24.2044 51.8846 24.3596 52.1546 24.5825 52.3624L45.65 72.0249C46.2609 72.5946 47.0646 72.9125 47.9 72.9149H66.465L58.4 49.7349Z" fill="#0078D4"/>
<path d="M28.3575 7.08498C27.6604 7.08245 26.9806 7.3028 26.4176 7.71386C25.8545 8.12493 25.4375 8.7052 25.2275 9.36998L5.26503 68.5175C5.08679 69.0144 5.03082 69.5469 5.10187 70.07C5.17292 70.593 5.36889 71.0913 5.67321 71.5227C5.97753 71.954 6.38125 72.3057 6.85022 72.5481C7.3192 72.7904 7.83964 72.9163 8.36753 72.915H24.8675C25.4822 72.8052 26.0568 72.5342 26.5324 72.1296C27.0081 71.7251 27.3679 71.2016 27.575 70.6125L31.555 58.88L45.775 72.145C46.3711 72.6383 47.1189 72.9111 47.8925 72.9175H66.3925L58.28 49.7375H34.6325L49.1075 7.08498L28.3575 7.08498Z" fill="url(#paint1_linear_51_1477)"/>
<path d="M54.765 9.32251C54.5464 8.66775 54.1276 8.09825 53.5677 7.69449C53.0079 7.29074 52.3353 7.07316 51.645 7.07251L28.605 7.07251C29.2953 7.07316 29.9679 7.29074 30.5277 7.69449C31.0876 8.09825 31.5064 8.66775 31.725 9.32251L51.725 68.5725C51.8921 69.0678 51.9388 69.5958 51.8614 70.1128C51.784 70.6297 51.5846 71.1208 51.2797 71.5454C50.9748 71.97 50.5732 72.3159 50.108 72.5545C49.6429 72.7931 49.1277 72.9175 48.605 72.9175H71.6475C72.1687 72.9148 72.6819 72.7883 73.1447 72.5486C73.6076 72.3088 74.0069 71.9626 74.3098 71.5383C74.6127 71.1141 74.8105 70.6241 74.8871 70.1084C74.9636 69.5928 74.9166 69.0664 74.75 68.5725L54.765 9.32251Z" fill="url(#paint2_linear_51_1477)"/>
<defs>
<linearGradient id="paint0_linear_51_1477" x1="30.833" y1="12.0349" x2="11.1823" y2="71.9473" gradientUnits="userSpaceOnUse">
<stop stop-color="#114A8B"/>
<stop offset="1" stop-color="#0669BC"/>
</linearGradient>
<linearGradient id="paint1_linear_51_1477" x1="41.4465" y1="42.4167" x2="37.4748" y2="43.4738" gradientUnits="userSpaceOnUse">
<stop stop-opacity="0.3"/>
<stop offset="0.071" stop-opacity="0.2"/>
<stop offset="0.321" stop-opacity="0.1"/>
<stop offset="0.623" stop-opacity="0.05"/>
<stop offset="1" stop-opacity="0"/>
</linearGradient>
<linearGradient id="paint2_linear_51_1477" x1="46.3809" y1="9.62025" x2="68.8281" y2="68.2951" gradientUnits="userSpaceOnUse">
<stop stop-color="#3CCBF4"/>
<stop offset="1" stop-color="#2892DF"/>
</linearGradient>
</defs>
</svg>
