<svg width="36" height="37" viewBox="0 0 36 37" fill="none" xmlns="http://www.w3.org/2000/svg">
<path d="M22.1812 12.862H13.7168V12.068C13.7168 9.61023 15.6159 7.61056 17.9502 7.61056C20.2833 7.61056 22.1811 9.61023 22.1811 12.068L22.1812 12.862ZM15.4083 11.2737H20.4903C20.1724 10.0766 19.1543 9.19864 17.9509 9.19864C16.7455 9.19864 15.7263 10.0766 15.4084 11.2737H15.4083Z" fill="#00D1CD"/>
<path d="M20.591 24.6829H15.4102C13.8157 24.6829 11.6318 24.6829 11.6318 21.8624V12.2586C11.6318 11.8201 11.9877 11.4645 12.4259 11.4645H23.5604C23.9989 11.4645 24.3545 11.8204 24.3545 12.2586V16.7346C24.3636 16.8667 24.3694 17.001 24.3694 17.1381L24.3545 21.7119C24.3545 24.6829 21.9067 24.6829 20.5914 24.6829L20.591 24.6829ZM13.22 13.0528V21.8624C13.22 22.9567 13.4657 23.0949 15.4102 23.0949H20.5914C22.4003 23.0949 22.7664 22.8617 22.7664 21.7093L22.7814 17.1355C22.7814 17.0313 22.7761 16.9275 22.7686 16.8242C22.767 16.8042 22.7661 16.784 22.7661 16.7644V13.053L13.22 13.0528Z" fill="#00D1CD"/>
<path d="M14.5626 15.6946C14.1242 15.6946 13.7686 15.3387 13.7686 14.9006V11.8578C13.7686 11.4194 14.1244 11.0638 14.5626 11.0638C15.001 11.0638 15.3566 11.4197 15.3566 11.8578V14.9006C15.3569 15.339 15.001 15.6946 14.5626 15.6946Z" fill="#00D1CD"/>
<path d="M21.3375 15.6152C20.8991 15.6152 20.5435 15.2593 20.5435 14.8211V11.7784C20.5435 11.34 20.8994 10.9844 21.3375 10.9844C21.7759 10.9844 22.1315 11.3403 22.1315 11.7784V14.8211C22.1318 15.2593 21.7765 15.6152 21.3375 15.6152Z" fill="#00D1CD"/>
<path d="M21.3375 16.0073C20.6781 16.0073 20.1416 15.475 20.1416 14.8202C20.1416 14.1658 20.6781 13.6337 21.3375 13.6337C21.9967 13.6337 22.5332 14.1658 22.5332 14.8202C22.5332 15.475 21.9967 16.0073 21.3375 16.0073ZM21.3375 14.4192C21.1207 14.4192 20.9448 14.599 20.9448 14.8202C20.9448 15.0418 21.1207 15.2221 21.3375 15.2221C21.5538 15.2221 21.7297 15.0418 21.7297 14.8202C21.7302 14.5995 21.5541 14.4192 21.3375 14.4192Z" fill="#00D1CD"/>
<path d="M14.5626 16.0874C13.9032 16.0874 13.3667 15.5551 13.3667 14.9003C13.3667 14.2459 13.9032 13.7139 14.5626 13.7139C15.2218 13.7139 15.7582 14.2459 15.7582 14.9003C15.7582 15.5551 15.2218 16.0874 14.5626 16.0874ZM14.5626 14.4993C14.3463 14.4993 14.1699 14.6791 14.1699 14.9004C14.1699 15.1219 14.3463 15.3022 14.5626 15.3022C14.7789 15.3022 14.9548 15.1219 14.9548 14.9004C14.9551 14.6791 14.7792 14.4993 14.5626 14.4993Z" fill="#00D1CD"/>
<path d="M32.2939 27H3.71299C3.27455 27 2.91895 26.6441 2.91895 26.206V6.48582C2.91895 6.04739 3.27484 5.69178 3.71299 5.69178H32.2939C32.7323 5.69178 33.0879 6.04768 33.0879 6.48582V26.206C33.0879 26.645 32.732 27.0003 32.2939 27.0003V27ZM4.5071 25.4117H31.4998V7.27972H4.5071V25.4117Z" fill="#00D1CD"/>
<path d="M34.8089 7.1806H0.79404C0.355606 7.1806 0 6.8247 0 6.38656V3.80584C0 3.36741 0.355897 3.0118 0.79404 3.0118H34.8089C35.2473 3.0118 35.6029 3.3677 35.6029 3.80584V6.38656C35.6029 6.82499 35.2473 7.1806 34.8089 7.1806ZM1.58815 5.59252H34.0148V4.59988H1.58815V5.59252Z" fill="#00D1CD"/>
<path d="M35.2059 29.4398H1.19101C0.752578 29.4398 0.396973 29.0839 0.396973 28.6458V26.2797C0.396973 25.8412 0.752869 25.4856 1.19101 25.4856H35.2059C35.6443 25.4856 35.9999 25.8415 35.9999 26.2797V28.6458C35.9999 29.0845 35.644 29.4398 35.2059 29.4398ZM1.98512 27.8517H34.4118V27.074H1.98512V27.8517Z" fill="#00D1CD"/>
<path d="M19.6097 4.36739H16.7877C16.3493 4.36739 15.9937 4.0115 15.9937 3.57335V0.794039C15.9937 0.355605 16.3495 0 16.7877 0H19.6097C20.0481 0 20.4037 0.355896 20.4037 0.794039V3.57335C20.4037 4.01207 20.0481 4.36739 19.6097 4.36739ZM17.5815 2.77931H18.8151V1.58808H17.5815V2.77931Z" fill="#00D1CD"/>
<path d="M24.4187 36.2642H11.9781C11.5397 36.2642 11.1841 35.9083 11.1841 35.4701V33.3522C11.1841 32.9138 11.54 32.5582 11.9781 32.5582H15.9933V28.6455C15.9933 28.207 16.3492 27.8514 16.7873 27.8514H19.6093C20.0477 27.8514 20.4033 28.2073 20.4033 28.6455V32.5582H24.4185C24.8569 32.5582 25.2125 32.9141 25.2125 33.3522V35.4701C25.2128 35.9086 24.8575 36.2642 24.4188 36.2642H24.4187ZM12.7722 34.6761H23.6246V34.1465L19.6097 34.1463C19.1713 34.1463 18.8157 33.7904 18.8157 33.3522V29.4395H17.5821V33.3522C17.5821 33.7907 17.2262 34.1463 16.7881 34.1463H12.7724L12.7722 34.6761Z" fill="#00D1CD"/>
</svg>
