<svg width="23" height="23" viewBox="0 0 23 23" fill="none" xmlns="http://www.w3.org/2000/svg">
<path d="M11.5002 11.5C12.0272 11.5 12.4786 11.3121 12.8543 10.9365C13.2293 10.5614 13.4168 10.1104 13.4168 9.58329C13.4168 9.05621 13.2293 8.60483 12.8543 8.22917C12.4786 7.85414 12.0272 7.66663 11.5002 7.66663C10.9731 7.66663 10.522 7.85414 10.147 8.22917C9.77133 8.60483 9.5835 9.05621 9.5835 9.58329C9.5835 10.1104 9.77133 10.5614 10.147 10.9365C10.522 11.3121 10.9731 11.5 11.5002 11.5ZM11.5002 18.5437C13.4488 16.7548 14.8943 15.1295 15.8366 13.6677C16.779 12.2066 17.2502 10.909 17.2502 9.77496C17.2502 8.03399 16.695 6.60831 15.5846 5.49792C14.4748 4.38817 13.1134 3.83329 11.5002 3.83329C9.88697 3.83329 8.52518 4.38817 7.41479 5.49792C6.30504 6.60831 5.75016 8.03399 5.75016 9.77496C5.75016 10.909 6.22134 12.2066 7.1637 13.6677C8.10607 15.1295 9.55155 16.7548 11.5002 18.5437ZM11.5002 21.0833C8.92863 18.8951 7.00813 16.8625 5.73866 14.9854C4.46855 13.109 3.8335 11.3722 3.8335 9.77496C3.8335 7.37913 4.60432 5.47045 6.14595 4.04892C7.68695 2.62739 9.47169 1.91663 11.5002 1.91663C13.5286 1.91663 15.3134 2.62739 16.8544 4.04892C18.396 5.47045 19.1668 7.37913 19.1668 9.77496C19.1668 11.3722 18.5321 13.109 17.2626 14.9854C15.9925 16.8625 14.0717 18.8951 11.5002 21.0833Z" fill="#565656"/>
</svg>
