<svg width="60" height="60" viewBox="0 0 60 60" fill="none" xmlns="http://www.w3.org/2000/svg">
<path d="M0 6.66667C0 2.985 2.985 0 6.66667 0L53.3333 0C57.015 0 60 2.985 60 6.66667V53.3333C60 57.015 57.015 60 53.3333 60H6.66667C2.985 60 0 57.015 0 53.3333L0 6.66667Z" fill="#03A9F4"/>
<path d="M23.3602 21.9565H20.0236V29.3465H23.3119C24.2236 29.3465 24.9286 29.0482 25.4286 28.4515C25.9286 27.8549 26.1769 26.9865 26.1769 25.8465C26.1769 24.6632 25.9219 23.7232 25.4119 23.0232C24.9019 22.3232 24.2169 21.9682 23.3602 21.9565Z" fill="#020F16"/>
<path d="M4.99988 5L4.99988 55H54.9999V5L4.99988 5ZM28.9415 31.315C27.5649 32.6617 25.6549 33.3333 23.2132 33.3333H20.0232V41.6667H15.2382L15.2382 17.9683H23.3115C25.6549 17.9683 27.5249 18.6967 28.9182 20.15C30.3115 21.6033 31.0099 23.4917 31.0099 25.8133C31.0099 28.135 30.3199 29.9683 28.9415 31.315ZM44.4699 40.56C43.2882 41.515 41.7349 41.9917 39.8149 41.9917C38.5232 41.9917 37.3832 41.74 36.3965 41.235C35.4099 40.73 34.6349 40.0267 34.0765 39.1267C33.5182 38.2267 33.2382 37.255 33.2382 36.2133H37.6165C37.6399 37.015 37.8249 37.6183 38.1782 38.02C38.5315 38.4217 39.1082 38.6217 39.9115 38.6217C41.1482 38.6217 41.7665 38.0633 41.7665 36.945C41.7665 36.555 41.5799 36.1933 41.2049 35.8633C40.8299 35.5333 39.9999 35.0867 38.7082 34.5217C36.8099 33.7517 35.5049 32.955 34.7932 32.1283C34.0815 31.3017 33.7265 30.2783 33.7265 29.0517C33.7265 27.51 34.2832 26.2383 35.3949 25.235C36.5065 24.2317 37.9815 23.73 39.8132 23.73C41.7432 23.73 43.2899 24.23 44.4515 25.2267C45.6132 26.2233 46.1932 27.565 46.1932 29.2467H41.5865C41.5865 27.815 40.9915 27.0983 39.7965 27.0983C39.3082 27.0983 38.9082 27.25 38.5915 27.5533C38.2749 27.8567 38.1199 28.2817 38.1199 28.8233C38.1199 29.2133 38.2932 29.5583 38.6415 29.8567C38.9899 30.155 39.8065 30.5817 41.0999 31.135C42.9782 31.83 44.3032 32.6033 45.0799 33.455C45.8565 34.3067 46.2432 35.4117 46.2432 36.7667C46.2432 38.3417 45.6515 39.605 44.4699 40.56Z" fill="#020F16"/>
</svg>
