<svg width="60" height="60" viewBox="0 0 60 60" fill="none" xmlns="http://www.w3.org/2000/svg">
<path d="M57.8788 6.49497L45.5241 0.546921C44.8264 0.210518 44.0414 0.0995052 43.2777 0.229271C42.5141 0.359036 41.8098 0.723152 41.2624 1.27114L0.819507 38.1422C0.328816 38.5874 0.035091 39.2094 0.00294495 39.8712C-0.0292011 40.533 0.202865 41.1804 0.648093 41.6712C0.70166 41.729 0.755227 41.7847 0.813079 41.8361L4.11493 44.8359C4.54638 45.2285 5.10175 45.4577 5.68457 45.4835C6.2674 45.5094 6.84086 45.3302 7.30536 44.9773L56.0189 8.03769C56.3869 7.75848 56.8254 7.58752 57.2853 7.54405C57.7451 7.50059 58.208 7.58634 58.6217 7.79165C59.0355 7.99697 59.3837 8.31369 59.6272 8.70618C59.8707 9.09867 59.9998 9.55134 60 10.0132V9.86967C60 9.16452 59.8009 8.4737 59.4256 7.8767C59.0503 7.27969 58.5142 6.80075 57.8788 6.49497Z" fill="#0065A9"/>
<path d="M57.8788 53.5049L45.5241 59.4551C44.8262 59.7906 44.0414 59.9011 43.278 59.7713C42.5146 59.6416 41.8103 59.278 41.2624 58.7309L0.819507 21.8577C0.328816 21.4125 0.035091 20.7905 0.00294495 20.1287C-0.0292011 19.4669 0.202865 18.8194 0.648093 18.3287C0.70166 18.2709 0.755227 18.2152 0.813079 18.1637L4.11493 15.164C4.54682 14.7697 5.10346 14.5395 5.68772 14.5137C6.27198 14.4878 6.84677 14.6679 7.31179 15.0226L56.0189 51.9622C56.3869 52.2414 56.8254 52.4124 57.2853 52.4558C57.7451 52.4993 58.208 52.4136 58.6217 52.2082C59.0355 52.0029 59.3837 51.6862 59.6272 51.2937C59.8707 50.9012 59.9998 50.4485 60 49.9867V50.1409C59.9977 50.8442 59.7975 51.5326 59.4224 52.1275C59.0473 52.7224 58.5124 53.1997 57.8788 53.5049Z" fill="#007ACC"/>
<path d="M45.524 59.4551C44.8261 59.7906 44.0412 59.9011 43.2778 59.7713C42.5144 59.6416 41.8102 59.2781 41.2622 58.7309C41.5699 59.0346 41.9604 59.2407 42.3847 59.3234C42.8091 59.4061 43.2484 59.3618 43.6476 59.1959C44.0469 59.03 44.3883 58.75 44.629 58.391C44.8698 58.0319 44.9993 57.6098 45.0012 57.1775V2.82225C45.0015 2.38791 44.873 1.96323 44.6318 1.60202C44.3906 1.2408 44.0476 0.959301 43.6463 0.793175C43.245 0.627049 42.8034 0.583773 42.3774 0.668828C41.9515 0.753884 41.5604 0.963444 41.2537 1.27096C41.8012 0.72317 42.5054 0.359031 43.2688 0.228905C44.0323 0.098779 44.8174 0.209096 45.5154 0.544598L57.8679 6.48407C58.5053 6.78833 59.0437 7.26662 59.4209 7.86374C59.7982 8.46086 59.9989 9.15248 59.9999 9.85878V50.1409C60 50.8467 59.8008 51.5381 59.4251 52.1356C59.0494 52.733 58.5126 53.2121 57.8765 53.5178L45.524 59.4551Z" fill="#1F9CF0"/>
</svg>
