<svg width="40" height="37" viewBox="0 0 40 37" fill="none" xmlns="http://www.w3.org/2000/svg">
<path fill-rule="evenodd" clip-rule="evenodd" d="M24.2886 24.9115V28.7679L21.4762 31.3912C21.4762 31.3928 21.4724 31.3941 21.4724 31.3956C20.1704 29.4939 20.6563 26.8966 22.5575 25.5942C23.0758 25.2394 23.6672 25.0058 24.288 24.9116L24.2886 24.9115ZM25.1622 29.6649L22.328 32.3056C22.328 32.3071 22.328 32.3078 22.3243 32.3093C24.1285 33.7423 26.7526 33.4409 28.1853 31.6361C28.6385 31.0653 28.9342 30.3855 29.0432 29.665L25.1622 29.6649ZM25.5417 24.9115C27.3484 25.1888 28.7663 26.6071 29.0428 28.4146H25.5417V24.9115ZM10.2869 29.4207H19.5077C19.7181 32.4088 22.3102 34.661 25.2975 34.4506C28.2848 34.2403 30.5363 31.6474 30.326 28.6592C30.1421 26.0463 28.1178 23.9379 25.515 23.649C25.531 23.5925 25.5398 23.5344 25.5407 23.4757V18.695C25.537 18.349 25.2532 18.0714 24.907 18.0752C24.5664 18.0789 24.2915 18.3543 24.2874 18.695V23.4757C24.2883 23.5344 24.2971 23.5925 24.3131 23.649C23.4201 23.7479 22.566 24.0688 21.829 24.5828V22.118C21.8252 21.772 21.5415 21.4945 21.1956 21.4982C20.855 21.502 20.5797 21.7774 20.5759 22.118V25.7857C20.0499 26.4868 19.7017 27.305 19.5624 28.1707L18.1185 28.1704V20.6112C18.1279 20.2662 17.8558 19.9786 17.5108 19.9692C17.1658 19.9597 16.8783 20.232 16.8689 20.577C16.8686 20.5883 16.8686 20.5999 16.8689 20.6112V28.1704H14.407V23.9897C14.4174 23.6446 14.1459 23.3564 13.8009 23.3463C13.4559 23.336 13.1678 23.6076 13.1577 23.9526C13.1574 23.9649 13.1574 23.9774 13.1577 23.9897V28.1707H10.2866C9.94133 28.1707 9.66165 28.4504 9.66165 28.7958C9.66165 29.1412 9.94133 29.421 10.2866 29.421L10.2869 29.4207ZM13.32 21.5203C13.088 21.265 13.1059 20.87 13.3605 20.6374L17.072 17.2593C17.25 17.0972 17.5052 17.0517 17.7283 17.1428L21.071 18.5001L24.4911 15.3456C24.7447 15.1113 25.1402 15.1274 25.3744 15.3811C25.6085 15.6347 25.5925 16.0304 25.3389 16.2646L21.6274 19.6879C21.4491 19.8518 21.1921 19.8983 20.9676 19.8073L17.6212 18.449L14.2011 21.5615C13.9481 21.7936 13.5551 21.7763 13.3231 21.5232C13.3222 21.522 13.3209 21.521 13.32 21.5198L13.32 21.5203ZM38.7503 9.12736H1.24971V5.80447C1.25128 5.07039 1.84641 4.47637 2.58032 4.47604H6.17755V5.07983C6.17755 6.62303 7.42837 7.8743 8.97153 7.87398C10.5143 7.87398 11.7649 6.62279 11.7649 5.07983V4.47604H17.2084V5.07983C17.208 6.62215 18.4577 7.87269 19.9994 7.87301C21.5412 7.87333 22.7915 6.62335 22.7918 5.08112V5.08017V4.47639H28.2353V5.08017C28.2353 6.62338 29.4861 7.87464 31.0293 7.87432C32.572 7.87432 33.8226 6.62314 33.8226 5.08017V4.47639H37.4199C38.1537 4.4767 38.7489 5.07075 38.7505 5.80482V9.1277L38.7503 9.12736ZM38.7503 34.4219V13.8947H1.24971V34.4219C1.25128 35.156 1.84641 35.75 2.58032 35.7504H37.4203C38.1539 35.7501 38.749 35.156 38.7506 34.4219H38.7503ZM37.4197 3.2259H33.8225L33.8228 2.79418C33.8228 1.25097 32.572 -0.000291407 31.0288 3.0111e-05C29.486 3.0111e-05 28.2355 1.25122 28.2355 2.79418V3.2259H22.7917V2.79418C22.792 1.25186 21.5424 0.00131626 20.0006 0.000994747C18.4587 0.000680785 17.2085 1.25065 17.2082 2.79289V2.79383V3.22556L11.7647 3.22587V2.79415C11.7647 1.25094 10.5139 -0.000321456 8.97072 6.19475e-08C7.42796 6.19475e-08 6.17738 1.25119 6.17738 2.79415V3.22587H2.58016C1.15632 3.22713 0.00249104 4.38068 0 5.8046V34.4213C0.00219726 35.8452 1.15641 36.999 2.57983 37H37.4198C38.8437 36.9987 39.9978 35.8452 40 34.4213V5.8038C39.9975 4.37988 38.8433 3.22668 37.4198 3.22539L37.4197 3.2259Z" fill="#B49386"/>
</svg>
