<svg width="261" height="130" viewBox="0 0 261 130" fill="none" xmlns="http://www.w3.org/2000/svg">
<g clip-path="url(#clip0_19_140)">
<g clip-path="url(#clip1_19_140)">
<g clip-path="url(#clip2_19_140)">
<g clip-path="url(#clip3_19_140)">
<path d="M49.8195 123.529H0V125.313H49.8195V123.529Z" fill="white"/>
<path d="M260.835 123.529H211.016V125.313H260.835V123.529Z" fill="white"/>
<g clip-path="url(#clip4_19_140)">
<g clip-path="url(#clip5_19_140)">
<path d="M0.0112305 113.838V94.7298H8.00564C9.88121 94.7298 11.326 95.2312 12.3399 96.2339C13.3501 97.2367 13.8552 98.5552 13.8552 100.189C13.8552 101.341 13.5729 102.343 13.0084 103.198C12.4402 104.052 11.6547 104.683 10.6519 105.092L14.3287 113.838H10.4569L7.28141 105.872H3.57668V113.838H0.0112305ZM3.57668 102.724H7.50425C8.3399 102.724 8.96757 102.505 9.38725 102.067C9.80322 101.632 10.0112 101.006 10.0112 100.189C10.0112 99.4651 9.81622 98.9025 9.42625 98.5013C9.03627 98.1039 8.44203 97.9052 7.64352 97.9052H3.57668V102.724ZM19.844 113.838V106.624L13.9945 94.7298H17.7549L21.6546 103.114H21.766L25.6379 94.7298H29.2312L23.4095 106.624V113.838H19.844ZM27.1421 113.838L33.298 94.7298H37.4485L43.6044 113.838H39.9554L38.7855 110.078H31.7382L30.5961 113.838H27.1421ZM32.7131 106.902H37.8106L35.8886 100.524C35.7029 99.8922 35.5172 99.0287 35.3315 97.9331H35.22C35.0343 99.103 34.8486 99.9665 34.6629 100.524L32.7131 106.902ZM45.298 113.838V94.7298H48.4456L54.3509 105.259C54.5366 105.556 54.8245 106.15 55.2144 107.042L55.298 106.958L55.2701 105.37V94.7298H58.4456V113.838H55.2701L49.3649 103.309C49.2163 103.068 48.9285 102.473 48.5014 101.526L48.3899 101.61L48.4456 103.198V113.838H45.298ZM61.7604 102.501L61.1476 98.8245V94.7298H64.5459V98.8245L63.9609 102.501H61.7604ZM72.986 114.173C71.7789 114.173 70.674 113.944 69.6712 113.487C68.6684 113.034 67.8699 112.362 67.2757 111.471C66.6814 110.579 66.3843 109.502 66.3843 108.239L66.4122 107.627H70.1169L70.089 108.072C70.089 109.001 70.3583 109.738 70.8968 110.284C71.4354 110.834 72.1874 111.109 73.1531 111.109C74.1373 111.109 74.8653 110.889 75.3369 110.451C75.8123 110.017 76.05 109.484 76.05 108.852C76.05 108.221 75.8829 107.705 75.5486 107.304C75.2144 106.906 74.8003 106.596 74.3063 106.373C73.816 106.15 73.1252 105.89 72.2339 105.593C71.064 105.222 70.1169 104.85 69.3927 104.479C68.6684 104.108 68.05 103.541 67.5375 102.78C67.0287 102.019 66.7743 101.006 66.7743 99.7437C66.7743 98.5923 67.0621 97.6118 67.6378 96.8022C68.2135 95.9962 68.9841 95.3927 69.9498 94.9916C70.9154 94.5942 71.9832 94.3955 73.1531 94.3955C74.973 94.3955 76.4623 94.8635 77.621 95.7994C78.7835 96.739 79.3648 98.1467 79.3648 100.022V100.356H75.7158V100.106C75.7158 99.2887 75.4836 98.6425 75.0194 98.1671C74.5551 97.6954 73.9238 97.4596 73.1252 97.4596C72.2896 97.4596 71.6341 97.649 71.1587 98.0278C70.687 98.4104 70.4511 98.8987 70.4511 99.493C70.4511 100.013 70.609 100.44 70.9247 100.774C71.2404 101.109 71.6341 101.378 72.1057 101.582C72.5811 101.786 73.2367 102.019 74.0723 102.278C75.2794 102.668 76.2543 103.044 76.9971 103.404C77.7399 103.768 78.3806 104.33 78.9191 105.092C79.4576 105.853 79.7269 106.856 79.7269 108.1C79.7269 110.199 79.1271 111.736 77.9275 112.713C76.7315 113.686 75.0844 114.173 72.986 114.173ZM91.2812 113.838L87.1308 94.7298H90.6684L92.9525 106.485C93.0639 107.005 93.1846 107.896 93.3146 109.159H93.426C93.556 107.896 93.6767 107.005 93.7881 106.485L96.1001 94.7298H100.139L102.423 106.485C102.516 106.967 102.637 107.859 102.785 109.159H102.897C103.008 107.97 103.129 107.079 103.259 106.485L105.599 94.7298H108.663L104.512 113.838H100.919L98.3285 101.666C98.1799 101.053 98.05 100.152 97.9385 98.9637H97.8271C97.6786 100.245 97.5486 101.146 97.4371 101.666L94.8745 113.838H91.2812ZM110.362 113.838V94.7298H122.535V97.9052H113.927V102.473H121.309V105.649H113.927V110.663H122.702V113.838H110.362ZM125.599 113.838V94.7298H133.816C134.819 94.7298 135.714 94.9285 136.501 95.3259C137.292 95.727 137.911 96.2841 138.356 96.9972C138.802 97.714 139.025 98.5366 139.025 99.4651C139.025 100.524 138.75 101.437 138.2 102.206C137.654 102.979 136.954 103.513 136.1 103.811V103.922C137.084 104.219 137.892 104.795 138.523 105.649C139.155 106.503 139.47 107.525 139.47 108.713C139.47 109.753 139.214 110.657 138.702 111.426C138.193 112.199 137.511 112.793 136.657 113.209C135.803 113.629 134.856 113.838 133.816 113.838H125.599ZM129.164 102.473H132.841C133.658 102.473 134.284 102.251 134.718 101.805C135.157 101.359 135.376 100.793 135.376 100.106C135.376 99.4001 135.162 98.856 134.735 98.4735C134.308 98.0947 133.732 97.9052 133.008 97.9052H129.164V102.473ZM129.164 110.663H133.231C133.992 110.663 134.614 110.453 135.097 110.033C135.58 109.617 135.821 109.029 135.821 108.267C135.821 107.487 135.584 106.85 135.108 106.356C134.637 105.866 133.955 105.621 133.064 105.621H129.164V110.663ZM154.2 114.173C152.993 114.173 151.888 113.944 150.885 113.487C149.883 113.034 149.084 112.362 148.49 111.471C147.896 110.579 147.599 109.502 147.599 108.239L147.626 107.627H151.331L151.303 108.072C151.303 109.001 151.573 109.738 152.111 110.284C152.65 110.834 153.402 111.109 154.367 111.109C155.352 111.109 156.081 110.889 156.557 110.451C157.028 110.017 157.264 109.484 157.264 108.852C157.264 108.221 157.097 107.705 156.763 107.304C156.429 106.906 156.016 106.596 155.526 106.373C155.032 106.15 154.34 105.89 153.448 105.593C152.278 105.222 151.331 104.85 150.607 104.479C149.883 104.108 149.266 103.541 148.757 102.78C148.245 102.019 147.989 101.006 147.989 99.7437C147.989 98.5923 148.276 97.6118 148.852 96.8022C149.428 95.9962 150.198 95.3927 151.164 94.9916C152.13 94.5942 153.197 94.3955 154.367 94.3955C156.187 94.3955 157.678 94.8635 158.841 95.7994C160 96.739 160.579 98.1467 160.579 100.022V100.356H156.93V100.106C156.93 99.2887 156.698 98.6425 156.234 98.1671C155.769 97.6954 155.138 97.4596 154.339 97.4596C153.504 97.4596 152.85 97.649 152.379 98.0278C151.903 98.4104 151.665 98.8987 151.665 99.493C151.665 100.013 151.823 100.44 152.139 100.774C152.455 101.109 152.85 101.378 153.326 101.582C153.797 101.786 154.451 102.019 155.287 102.278C156.494 102.668 157.469 103.044 158.211 103.404C158.954 103.768 159.595 104.33 160.133 105.092C160.672 105.853 160.941 106.856 160.941 108.1C160.941 110.199 160.343 111.736 159.147 112.713C157.948 113.686 156.299 114.173 154.2 114.173ZM163.671 113.838V94.7298H175.844V97.9052H167.236V102.473H174.618V105.649H167.236V110.663H176.011V113.838H163.671ZM178.908 113.838V94.7298H186.902C188.778 94.7298 190.221 95.2312 191.231 96.2339C192.245 97.2367 192.752 98.5552 192.752 100.189C192.752 101.341 192.468 102.343 191.899 103.198C191.335 104.052 190.551 104.683 189.548 105.092L193.225 113.838H189.353L186.178 105.872H182.473V113.838H178.908ZM182.473 102.724H186.401C187.236 102.724 187.862 102.505 188.278 102.067C188.698 101.632 188.908 101.006 188.908 100.189C188.908 99.4651 188.713 98.9025 188.323 98.5013C187.933 98.1039 187.338 97.9052 186.54 97.9052H182.473V102.724ZM199.158 113.838L193.337 94.7298H197.013L201.025 108.407H201.136L205.091 94.7298H208.573L202.752 113.838H199.158ZM209.961 113.838V94.7298H213.526V113.838H209.961ZM223.47 114.173C221.019 114.173 219.14 113.35 217.832 111.705C216.521 110.063 215.866 107.59 215.866 104.284C215.866 100.979 216.521 98.5032 217.832 96.8579C219.14 95.2163 221.019 94.3955 223.47 94.3955C225.569 94.3955 227.264 95.0176 228.557 96.2618C229.845 97.506 230.49 99.363 230.49 101.833H226.841C226.841 100.403 226.54 99.3166 225.938 98.5738C225.333 97.831 224.51 97.4596 223.47 97.4596C222.17 97.4596 221.192 97.9925 220.534 99.0584C219.873 100.128 219.543 101.638 219.543 103.588V104.98C219.543 106.93 219.883 108.438 220.562 109.504C221.238 110.574 222.245 111.109 223.582 111.109C224.64 111.109 225.476 110.741 226.089 110.005C226.701 109.274 227.008 108.193 227.008 106.763H230.49C230.49 109.177 229.849 111.016 228.568 112.278C227.286 113.541 225.587 114.173 223.47 114.173ZM233.08 113.838V94.7298H245.253V97.9052H236.646V102.473H244.027V105.649H236.646V110.663H245.42V113.838H233.08ZM254.083 114.173C252.876 114.173 251.771 113.944 250.768 113.487C249.765 113.034 248.967 112.362 248.373 111.471C247.778 110.579 247.481 109.502 247.481 108.239L247.509 107.627H251.214L251.186 108.072C251.186 109.001 251.455 109.738 251.994 110.284C252.532 110.834 253.284 111.109 254.25 111.109C255.234 111.109 255.962 110.889 256.434 110.451C256.909 110.017 257.147 109.484 257.147 108.852C257.147 108.221 256.98 107.705 256.646 107.304C256.311 106.906 255.897 106.596 255.403 106.373C254.913 106.15 254.222 105.89 253.331 105.593C252.161 105.222 251.214 104.85 250.49 104.479C249.765 104.108 249.147 103.541 248.635 102.78C248.126 102.019 247.871 101.006 247.871 99.7437C247.871 98.5923 248.159 97.6118 248.735 96.8022C249.31 95.9962 250.081 95.3927 251.047 94.9916C252.012 94.5942 253.08 94.3955 254.25 94.3955C256.07 94.3955 257.559 94.8635 258.718 95.7994C259.881 96.739 260.462 98.1467 260.462 100.022V100.356H256.813V100.106C256.813 99.2887 256.581 98.6425 256.116 98.1671C255.652 97.6954 255.021 97.4596 254.222 97.4596C253.387 97.4596 252.731 97.649 252.256 98.0278C251.784 98.4104 251.548 98.8987 251.548 99.493C251.548 100.013 251.706 100.44 252.022 100.774C252.337 101.109 252.731 101.378 253.203 101.582C253.678 101.786 254.334 102.019 255.169 102.278C256.376 102.668 257.351 103.044 258.094 103.404C258.837 103.768 259.478 104.33 260.016 105.092C260.555 105.853 260.824 106.856 260.824 108.1C260.824 110.199 260.224 111.736 259.024 112.713C257.829 113.686 256.181 114.173 254.083 114.173Z" fill="white"/>
</g>
</g>
<g clip-path="url(#clip6_19_140)">
<g clip-path="url(#clip7_19_140)">
<path d="M59.189 127.851C58.356 127.851 57.6313 127.669 57.0148 127.306C56.3984 126.944 55.9261 126.424 55.5978 125.744C55.268 125.066 55.103 124.265 55.103 123.34C55.103 122.415 55.268 121.616 55.5978 120.941C55.9261 120.266 56.3984 119.747 57.0148 119.384C57.6313 119.022 58.356 118.842 59.189 118.842C59.7971 118.842 60.3553 118.936 60.8634 119.124C61.3715 119.311 61.813 119.587 62.1879 119.954L61.8006 120.741C61.3757 120.383 60.9592 120.124 60.551 119.966C60.1428 119.808 59.693 119.729 59.2015 119.729C58.2352 119.729 57.488 120.043 56.9598 120.671C56.43 121.301 56.1651 122.19 56.1651 123.34C56.1651 124.498 56.43 125.391 56.9598 126.019C57.488 126.649 58.2352 126.964 59.2015 126.964C59.693 126.964 60.1428 126.884 60.551 126.726C60.9592 126.568 61.3757 126.31 61.8006 125.951L62.1879 126.739C61.813 127.105 61.3715 127.382 60.8634 127.568C60.3553 127.757 59.7971 127.851 59.189 127.851ZM67.0986 121.516L67.1861 122.39L66.5238 122.453C65.899 122.511 65.4467 122.707 65.1668 123.04C64.8886 123.373 64.7495 123.786 64.7495 124.277V127.751H63.7373V121.666H64.7245V122.728C65.066 122.02 65.7366 121.624 66.7362 121.541L67.0986 121.516ZM73.1214 124.489V124.864H68.673C68.7063 125.572 68.8979 126.107 69.2478 126.469C69.5977 126.832 70.0925 127.014 70.7323 127.014C71.4403 127.014 72.0909 126.772 72.684 126.289L73.0214 127.026C72.7548 127.276 72.4133 127.473 71.9968 127.618C71.5803 127.765 71.1554 127.838 70.7223 127.838C69.7726 127.838 69.0246 127.559 68.4781 127.001C67.9333 126.443 67.6609 125.672 67.6609 124.689C67.6609 124.065 67.7817 123.512 68.0233 123.033C68.2648 122.554 68.6039 122.182 69.0404 121.915C69.4786 121.649 69.9767 121.516 70.5348 121.516C71.3429 121.516 71.976 121.78 72.4341 122.308C72.8923 122.838 73.1214 123.565 73.1214 124.489ZM70.5448 122.303C70.0134 122.303 69.5868 122.469 69.2653 122.803C68.9454 123.136 68.7563 123.606 68.698 124.215H72.2317C72.2167 123.598 72.0634 123.125 71.7719 122.795C71.4803 122.467 71.0713 122.303 70.5448 122.303ZM77.0799 121.516C77.8546 121.516 78.4319 121.713 78.8118 122.108C79.19 122.504 79.3791 123.107 79.3791 123.915V127.751H78.3919V126.714C78.2337 127.072 77.9921 127.348 77.6672 127.543C77.3423 127.74 76.9675 127.838 76.5426 127.838C76.1511 127.838 75.7912 127.759 75.463 127.601C75.1331 127.443 74.8724 127.222 74.6808 126.939C74.4892 126.655 74.3934 126.343 74.3934 126.001C74.3934 125.543 74.51 125.187 74.7433 124.932C74.9765 124.679 75.3597 124.495 75.8928 124.382C76.426 124.27 77.1674 124.215 78.117 124.215H78.3919V123.802C78.3919 123.294 78.2878 122.925 78.0795 122.695C77.8713 122.467 77.5339 122.353 77.0674 122.353C76.3677 122.353 75.6721 122.569 74.9807 123.003L74.6433 122.265C74.9599 122.04 75.3414 121.859 75.7879 121.72C76.2327 121.584 76.6634 121.516 77.0799 121.516ZM76.6801 127.039C77.1799 127.039 77.5906 126.869 77.9121 126.531C78.232 126.195 78.3919 125.76 78.3919 125.227V124.864H78.167C77.4339 124.864 76.8758 124.895 76.4926 124.957C76.1094 125.02 75.837 125.124 75.6754 125.269C75.5122 125.416 75.4305 125.631 75.4305 125.914C75.4305 126.239 75.5496 126.507 75.7879 126.719C76.0245 126.932 76.3219 127.039 76.6801 127.039ZM83.9024 127.026C84.0857 127.026 84.2689 127.014 84.4522 126.989L84.4022 127.788C84.2106 127.822 84.0024 127.838 83.7774 127.838C83.0444 127.838 82.4929 127.647 82.123 127.263C81.7515 126.88 81.5658 126.347 81.5658 125.664V122.465H80.3787V121.666H81.5658V119.816H82.5779V121.666H84.3022V122.465H82.5779V125.589C82.5779 126.547 83.0194 127.026 83.9024 127.026ZM90.5749 124.489V124.864H86.1266C86.1599 125.572 86.3515 126.107 86.7014 126.469C87.0512 126.832 87.5469 127.014 88.1883 127.014C88.8964 127.014 89.5461 126.772 90.1376 126.289L90.475 127.026C90.2084 127.276 89.8669 127.473 89.4503 127.618C89.0338 127.765 88.609 127.838 88.1758 127.838C87.2262 127.838 86.4781 127.559 85.9316 127.001C85.3868 126.443 85.1144 125.672 85.1144 124.689C85.1144 124.065 85.2352 123.512 85.4768 123.033C85.7184 122.554 86.0574 122.182 86.4939 121.915C86.9321 121.649 87.4303 121.516 87.9884 121.516C88.7964 121.516 89.4295 121.78 89.8877 122.308C90.3458 122.838 90.5749 123.565 90.5749 124.489ZM88.0009 122.303C87.4677 122.303 87.0404 122.469 86.7189 122.803C86.399 123.136 86.2099 123.606 86.1516 124.215H89.6878C89.6711 123.598 89.517 123.125 89.2254 122.795C88.9339 122.467 88.5257 122.303 88.0009 122.303ZM97.5823 126.651L99.6441 121.678H100.656L97.0575 130H96.0204L97.045 127.676L94.471 121.678H95.5456L97.5823 126.651ZM104.155 127.838C103.58 127.838 103.074 127.709 102.638 127.451C102.2 127.193 101.862 126.824 101.626 126.344C101.388 125.866 101.268 125.31 101.268 124.677C101.268 124.044 101.388 123.487 101.626 123.008C101.862 122.529 102.2 122.161 102.638 121.903C103.074 121.645 103.58 121.516 104.155 121.516C104.73 121.516 105.238 121.645 105.679 121.903C106.121 122.161 106.461 122.529 106.699 123.008C106.936 123.487 107.054 124.044 107.054 124.677C107.054 125.31 106.936 125.866 106.699 126.344C106.461 126.824 106.121 127.193 105.679 127.451C105.238 127.709 104.73 127.838 104.155 127.838ZM104.155 127.001C104.755 127.001 105.215 126.803 105.537 126.406C105.857 126.011 106.017 125.435 106.017 124.677C106.017 123.936 105.854 123.362 105.529 122.958C105.205 122.554 104.746 122.353 104.155 122.353C103.563 122.353 103.105 122.554 102.78 122.958C102.456 123.362 102.293 123.936 102.293 124.677C102.293 125.427 102.454 126.001 102.775 126.401C103.095 126.801 103.555 127.001 104.155 127.001ZM112.677 121.666H113.689V127.751H112.702V126.714C112.51 127.08 112.241 127.359 111.895 127.551C111.55 127.742 111.161 127.838 110.727 127.838C110.003 127.838 109.457 127.636 109.091 127.231C108.724 126.828 108.541 126.23 108.541 125.439V121.666H109.553V125.414C109.553 125.956 109.661 126.353 109.878 126.606C110.094 126.861 110.436 126.989 110.902 126.989C111.436 126.989 111.865 126.815 112.189 126.469C112.514 126.124 112.677 125.668 112.677 125.102V121.666ZM118.937 121.516L119.024 122.39L118.362 122.453C117.737 122.511 117.285 122.707 117.005 123.04C116.727 123.373 116.588 123.786 116.588 124.277V127.751H115.576V121.666H116.563V122.728C116.904 122.02 117.575 121.624 118.575 121.541L118.937 121.516ZM126.269 121.516C126.802 121.516 127.273 121.645 127.681 121.903C128.089 122.161 128.406 122.528 128.631 123.003C128.856 123.477 128.968 124.027 128.968 124.652C128.968 125.285 128.856 125.841 128.631 126.319C128.406 126.799 128.089 127.172 127.681 127.438C127.273 127.705 126.802 127.838 126.269 127.838C125.794 127.838 125.38 127.734 125.025 127.526C124.672 127.318 124.403 127.022 124.22 126.639V127.751H123.208V118.942H124.22V122.715C124.403 122.332 124.672 122.036 125.025 121.828C125.38 121.62 125.794 121.516 126.269 121.516ZM126.069 127.001C126.661 127.001 127.119 126.794 127.444 126.381C127.769 125.97 127.931 125.393 127.931 124.652C127.931 123.927 127.769 123.365 127.444 122.965C127.119 122.565 126.661 122.365 126.069 122.365C125.478 122.365 125.022 122.565 124.702 122.965C124.381 123.365 124.22 123.936 124.22 124.677C124.22 125.418 124.381 125.991 124.702 126.394C125.022 126.799 125.478 127.001 126.069 127.001ZM134.591 121.666H135.603V127.751H134.616V126.714C134.425 127.08 134.156 127.359 133.809 127.551C133.464 127.742 133.075 127.838 132.642 127.838C131.917 127.838 131.372 127.636 131.005 127.231C130.638 126.828 130.455 126.23 130.455 125.439V121.666H131.467V125.414C131.467 125.956 131.576 126.353 131.792 126.606C132.009 126.861 132.35 126.989 132.817 126.989C133.35 126.989 133.779 126.815 134.104 126.469C134.429 126.124 134.591 125.668 134.591 125.102V121.666ZM139.552 127.838C138.527 127.838 137.715 127.576 137.115 127.051L137.453 126.301C137.778 126.56 138.108 126.744 138.445 126.856C138.783 126.969 139.164 127.026 139.589 127.026C140.039 127.026 140.382 126.949 140.619 126.794C140.857 126.64 140.976 126.418 140.976 126.126C140.976 125.885 140.897 125.693 140.739 125.552C140.581 125.41 140.318 125.298 139.952 125.214L138.927 124.977C138.411 124.86 138.015 124.66 137.74 124.377C137.465 124.094 137.328 123.744 137.328 123.327C137.328 122.786 137.54 122.349 137.965 122.015C138.39 121.682 138.956 121.516 139.664 121.516C140.089 121.516 140.493 121.584 140.876 121.72C141.26 121.859 141.58 122.057 141.839 122.315L141.501 123.052C140.943 122.578 140.331 122.34 139.664 122.34C139.239 122.34 138.908 122.421 138.67 122.583C138.433 122.746 138.315 122.973 138.315 123.265C138.315 123.506 138.387 123.7 138.532 123.845C138.679 123.991 138.915 124.102 139.239 124.177L140.277 124.427C140.843 124.56 141.264 124.762 141.539 125.032C141.814 125.303 141.951 125.656 141.951 126.089C141.951 126.622 141.736 127.047 141.306 127.363C140.878 127.68 140.293 127.838 139.552 127.838ZM144.498 127.751H143.485V121.666H144.498V127.751ZM143.385 120.166V119.029H144.61V120.166H143.385ZM149.446 121.516C150.903 121.516 151.632 122.319 151.632 123.927V127.751H150.62V123.99C150.62 123.423 150.51 123.011 150.29 122.753C150.069 122.494 149.716 122.365 149.233 122.365C148.675 122.365 148.229 122.536 147.896 122.878C147.563 123.219 147.396 123.681 147.396 124.265V127.751H146.384V121.666H147.384V122.665C147.584 122.29 147.863 122.005 148.221 121.808C148.579 121.613 148.988 121.516 149.446 121.516ZM158.58 124.489V124.864H154.131C154.165 125.572 154.356 126.107 154.706 126.469C155.056 126.832 155.552 127.014 156.193 127.014C156.901 127.014 157.551 126.772 158.142 126.289L158.48 127.026C158.213 127.276 157.872 127.473 157.455 127.618C157.039 127.765 156.614 127.838 156.181 127.838C155.231 127.838 154.483 127.559 153.937 127.001C153.392 126.443 153.119 125.672 153.119 124.689C153.119 124.065 153.24 123.512 153.482 123.033C153.723 122.554 154.062 122.182 154.499 121.915C154.937 121.649 155.435 121.516 155.993 121.516C156.801 121.516 157.434 121.78 157.893 122.308C158.351 122.838 158.58 123.565 158.58 124.489ZM156.006 122.303C155.473 122.303 155.045 122.469 154.724 122.803C154.404 123.136 154.215 123.606 154.156 124.215H157.693C157.676 123.598 157.522 123.125 157.23 122.795C156.939 122.467 156.531 122.303 156.006 122.303ZM162.129 127.838C161.104 127.838 160.292 127.576 159.692 127.051L160.029 126.301C160.354 126.56 160.685 126.744 161.021 126.856C161.36 126.969 161.741 127.026 162.166 127.026C162.616 127.026 162.959 126.949 163.196 126.794C163.434 126.64 163.553 126.418 163.553 126.126C163.553 125.885 163.474 125.693 163.316 125.552C163.157 125.41 162.895 125.298 162.528 125.214L161.504 124.977C160.987 124.86 160.592 124.66 160.317 124.377C160.042 124.094 159.904 123.744 159.904 123.327C159.904 122.786 160.117 122.349 160.542 122.015C160.966 121.682 161.533 121.516 162.241 121.516C162.666 121.516 163.07 121.584 163.453 121.72C163.836 121.859 164.157 122.057 164.415 122.315L164.078 123.052C163.52 122.578 162.907 122.34 162.241 122.34C161.816 122.34 161.485 122.421 161.246 122.583C161.01 122.746 160.891 122.973 160.891 123.265C160.891 123.506 160.964 123.7 161.109 123.845C161.256 123.991 161.491 124.102 161.816 124.177L162.853 124.427C163.42 124.56 163.84 124.762 164.115 125.032C164.39 125.303 164.528 125.656 164.528 126.089C164.528 126.622 164.313 127.047 163.883 127.363C163.455 127.68 162.87 127.838 162.129 127.838ZM168.124 127.838C167.099 127.838 166.287 127.576 165.687 127.051L166.025 126.301C166.349 126.56 166.681 126.744 167.019 126.856C167.356 126.969 167.736 127.026 168.161 127.026C168.611 127.026 168.955 126.949 169.193 126.794C169.43 126.64 169.548 126.418 169.548 126.126C169.548 125.885 169.469 125.693 169.311 125.552C169.153 125.41 168.89 125.298 168.524 125.214L167.499 124.977C166.983 124.86 166.587 124.66 166.312 124.377C166.037 124.094 165.9 123.744 165.9 123.327C165.9 122.786 166.112 122.349 166.537 122.015C166.962 121.682 167.528 121.516 168.236 121.516C168.661 121.516 169.065 121.584 169.448 121.72C169.831 121.859 170.152 122.057 170.41 122.315L170.073 123.052C169.515 122.578 168.903 122.34 168.236 122.34C167.811 122.34 167.481 122.421 167.244 122.583C167.006 122.746 166.887 122.973 166.887 123.265C166.887 123.506 166.96 123.7 167.107 123.845C167.252 123.991 167.487 124.102 167.811 124.177L168.849 124.427C169.415 124.56 169.836 124.762 170.111 125.032C170.385 125.303 170.523 125.656 170.523 126.089C170.523 126.622 170.309 127.047 169.881 127.363C169.451 127.68 168.865 127.838 168.124 127.838ZM177.958 127.026C178.141 127.026 178.324 127.014 178.507 126.989L178.457 127.788C178.266 127.822 178.058 127.838 177.833 127.838C177.1 127.838 176.547 127.647 176.176 127.263C175.806 126.88 175.621 126.347 175.621 125.664V122.465H174.434V121.666H175.621V119.816H176.633V121.666H178.358V122.465H176.633V125.589C176.633 126.547 177.075 127.026 177.958 127.026ZM182.056 127.838C181.481 127.838 180.975 127.709 180.537 127.451C180.1 127.193 179.763 126.824 179.525 126.344C179.288 125.866 179.17 125.31 179.17 124.677C179.17 124.044 179.288 123.487 179.525 123.008C179.763 122.529 180.1 122.161 180.537 121.903C180.975 121.645 181.481 121.516 182.056 121.516C182.631 121.516 183.139 121.645 183.581 121.903C184.022 122.161 184.361 122.529 184.598 123.008C184.836 123.487 184.955 124.044 184.955 124.677C184.955 125.31 184.836 125.866 184.598 126.344C184.361 126.824 184.022 127.193 183.581 127.451C183.139 127.709 182.631 127.838 182.056 127.838ZM182.056 127.001C182.656 127.001 183.116 126.803 183.436 126.406C183.757 126.011 183.918 125.435 183.918 124.677C183.918 123.936 183.756 123.362 183.431 122.958C183.106 122.554 182.648 122.353 182.056 122.353C181.465 122.353 181.007 122.554 180.682 122.958C180.357 123.362 180.194 123.936 180.194 124.677C180.194 125.427 180.354 126.001 180.674 126.401C180.996 126.801 181.456 127.001 182.056 127.001ZM190.85 118.942H191.863V127.751H190.85V126.639C190.667 127.022 190.399 127.318 190.046 127.526C189.691 127.734 189.276 127.838 188.801 127.838C188.268 127.838 187.797 127.705 187.389 127.438C186.981 127.172 186.664 126.799 186.44 126.319C186.215 125.841 186.102 125.285 186.102 124.652C186.102 124.027 186.215 123.477 186.44 123.003C186.664 122.528 186.981 122.161 187.389 121.903C187.797 121.645 188.268 121.516 188.801 121.516C189.276 121.516 189.691 121.62 190.046 121.828C190.399 122.036 190.667 122.332 190.85 122.715V118.942ZM189.001 127.001C189.593 127.001 190.049 126.799 190.371 126.394C190.69 125.991 190.85 125.418 190.85 124.677C190.85 123.936 190.69 123.365 190.371 122.965C190.049 122.565 189.593 122.365 189.001 122.365C188.41 122.365 187.95 122.565 187.622 122.965C187.292 123.365 187.127 123.927 187.127 124.652C187.127 125.393 187.292 125.97 187.622 126.381C187.95 126.794 188.41 127.001 189.001 127.001ZM196.211 121.516C196.986 121.516 197.563 121.713 197.943 122.108C198.321 122.504 198.51 123.107 198.51 123.915V127.751H197.523V126.714C197.365 127.072 197.123 127.348 196.798 127.543C196.473 127.74 196.098 127.838 195.674 127.838C195.282 127.838 194.921 127.759 194.592 127.601C194.263 127.443 194.003 127.222 193.812 126.939C193.62 126.655 193.524 126.343 193.524 126.001C193.524 125.543 193.641 125.187 193.874 124.932C194.108 124.679 194.491 124.495 195.024 124.382C195.557 124.27 196.298 124.215 197.248 124.215H197.523V123.802C197.523 123.294 197.419 122.925 197.211 122.695C197.002 122.467 196.665 122.353 196.198 122.353C195.499 122.353 194.803 122.569 194.112 123.003L193.774 122.265C194.091 122.04 194.472 121.859 194.916 121.72C195.363 121.584 195.794 121.516 196.211 121.516ZM195.811 127.039C196.311 127.039 196.721 126.869 197.041 126.531C197.362 126.195 197.523 125.76 197.523 125.227V124.864H197.298C196.565 124.864 196.007 124.895 195.624 124.957C195.24 125.02 194.967 125.124 194.804 125.269C194.642 125.416 194.562 125.631 194.562 125.914C194.562 126.239 194.68 126.507 194.916 126.719C195.155 126.932 195.453 127.039 195.811 127.039ZM202.659 126.651L204.72 121.678H205.732L202.134 130H201.097L202.121 127.676L199.547 121.678H200.622L202.659 126.651Z" fill="#00D1CD"/>
</g>
</g>
</g>
</g>
<g clip-path="url(#clip8_19_140)">
<g clip-path="url(#clip9_19_140)">
<path d="M87.8887 42.5288C87.8887 19.041 106.93 0 130.417 0C153.905 0 172.946 19.041 172.946 42.5288C172.946 66.0166 153.905 85.0576 130.417 85.0576C106.93 85.0576 87.8887 66.0166 87.8887 42.5288ZM130.417 83.2743C152.921 83.2743 171.163 65.032 171.163 42.5288C171.163 20.0256 152.921 1.78322 130.417 1.78322C107.914 1.78322 89.6719 20.0256 89.6719 42.5288C89.6719 65.032 107.914 83.2743 130.417 83.2743Z" fill="white"/>
<g clip-path="url(#clip10_19_140)">
<g clip-path="url(#clip11_19_140)">
<path d="M121.072 37.1326V47.9253L130.417 53.3206L139.764 47.9257V37.1326L130.417 31.7368L121.072 37.1326ZM135.823 45.6502L130.417 48.7709L125.012 45.6502V39.4077L130.417 36.2865L135.823 39.4077V45.6502Z" fill="#00D1CD"/>
<path d="M130.417 19.4167L110.401 30.9733V54.085L130.417 65.6411L150.434 54.085V30.9733L130.417 19.4167ZM146.345 51.7243L130.417 60.9202L114.49 51.7243V33.3326L130.417 24.1367L146.345 33.3326V51.7243Z" fill="#00D1CD"/>
<path d="M115.756 34.063V50.9941L130.417 59.4592L145.08 50.9941V34.063L130.417 25.5979L115.756 34.063ZM141.029 48.6562L130.417 54.7818L119.807 48.6562V36.4024L130.417 30.2758L141.029 36.4024V48.6562Z" fill="#00D1CD"/>
</g>
</g>
</g>
</g>
</g>
</g>
<defs>
<clipPath id="clip0_19_140">
<rect width="260.835" height="130" fill="white"/>
</clipPath>
<clipPath id="clip1_19_140">
<rect width="260.835" height="130" fill="white"/>
</clipPath>
<clipPath id="clip2_19_140">
<rect width="260.835" height="35.6044" fill="white" transform="translate(0 94.3955)"/>
</clipPath>
<clipPath id="clip3_19_140">
<rect width="260.835" height="35.6044" fill="white" transform="translate(0 94.3955)"/>
</clipPath>
<clipPath id="clip4_19_140">
<rect width="260.835" height="19.7771" fill="white" transform="translate(0 94.3955)"/>
</clipPath>
<clipPath id="clip5_19_140">
<rect width="260.835" height="19.7771" fill="white" transform="translate(0 94.3955)"/>
</clipPath>
<clipPath id="clip6_19_140">
<rect width="161.196" height="11.1584" fill="white" transform="translate(49.8193 118.842)"/>
</clipPath>
<clipPath id="clip7_19_140">
<rect width="150.644" height="11.1584" fill="white" transform="translate(55.0952 118.842)"/>
</clipPath>
<clipPath id="clip8_19_140">
<rect width="85.0578" height="85.0578" fill="white" transform="translate(87.8887)"/>
</clipPath>
<clipPath id="clip9_19_140">
<rect width="85.0578" height="85.0578" fill="white" transform="translate(87.8887)"/>
</clipPath>
<clipPath id="clip10_19_140">
<rect width="40.0324" height="46.2244" fill="white" transform="translate(110.401 19.4167)"/>
</clipPath>
<clipPath id="clip11_19_140">
<rect width="40.0324" height="46.2244" fill="white" transform="translate(110.401 19.4167)"/>
</clipPath>
</defs>
</svg>
