<svg width="180" height="90" viewBox="0 0 180 90" fill="none" xmlns="http://www.w3.org/2000/svg">
<g clip-path="url(#clip0_27_2)">
<g clip-path="url(#clip1_27_2)">
<g clip-path="url(#clip2_27_2)">
<g clip-path="url(#clip3_27_2)">
<path d="M34.38 85.2463H0V86.4771H34.38V85.2463Z" fill="white"/>
<path d="M180 85.2463H145.62V86.4771H180V85.2463Z" fill="white"/>
<g clip-path="url(#clip4_27_2)">
<g clip-path="url(#clip5_27_2)">
<path d="M0.0078125 78.5589V65.3723H5.52469C6.819 65.3723 7.81601 65.7183 8.51571 66.4103C9.21285 67.1023 9.56142 68.0122 9.56142 69.1399C9.56142 69.9344 9.36663 70.6264 8.97706 71.2159C8.58492 71.8054 8.04284 72.2411 7.35083 72.5231L9.88821 78.5589H7.21627L5.0249 73.0613H2.4683V78.5589H0.0078125ZM2.4683 70.8891H5.17868C5.75536 70.8891 6.1885 70.7379 6.47812 70.4355C6.76518 70.1356 6.90871 69.7038 6.90871 69.1399C6.90871 68.6401 6.77415 68.2518 6.50504 67.975C6.23592 67.7008 5.82584 67.5636 5.27479 67.5636H2.4683V70.8891ZM13.6943 78.5589V73.5803L9.65754 65.3723H12.2526L14.9437 71.1583H15.0206L17.6926 65.3723H20.1723L16.1548 73.5803V78.5589H13.6943ZM18.7306 78.5589L22.9788 65.3723H25.8429L30.0911 78.5589H27.573L26.7656 75.9639H21.9023L21.1142 78.5589H18.7306ZM22.5751 73.7725H26.0928L24.7665 69.3706C24.6383 68.9349 24.5102 68.339 24.382 67.5829H24.3051C24.177 68.3902 24.0488 68.9861 23.9207 69.3706L22.5751 73.7725ZM31.2598 78.5589V65.3723H33.432L37.5072 72.6384C37.6353 72.8434 37.834 73.2535 38.1031 73.8686L38.1607 73.811L38.1415 72.7153V65.3723H40.3329V78.5589H38.1415L34.0663 71.2928C33.9638 71.1262 33.7652 70.7161 33.4704 70.0626L33.3935 70.1202L33.432 71.2159V78.5589H31.2598ZM42.6204 70.7354L42.1975 68.198V65.3723H44.5426V68.198L44.139 70.7354H42.6204ZM50.3671 78.7896C49.5341 78.7896 48.7716 78.632 48.0796 78.3167C47.3876 78.0041 46.8365 77.5401 46.4264 76.925C46.0164 76.3099 45.8113 75.5666 45.8113 74.6952L45.8305 74.2723H48.3871L48.3679 74.5799C48.3679 75.2206 48.5537 75.7294 48.9254 76.1061C49.297 76.4855 49.816 76.6751 50.4824 76.6751C51.1616 76.6751 51.6639 76.5239 51.9894 76.2215C52.3175 75.9216 52.4815 75.5538 52.4815 75.1181C52.4815 74.6824 52.3662 74.3261 52.1355 74.0493C51.9049 73.7751 51.6191 73.5611 51.2782 73.4073C50.9399 73.2535 50.4632 73.0741 49.8481 72.8691C49.0407 72.6128 48.3871 72.3565 47.8874 72.1002C47.3876 71.8439 46.9608 71.453 46.6071 70.9276C46.256 70.4022 46.0804 69.7038 46.0804 68.8323C46.0804 68.0378 46.2791 67.3612 46.6763 66.8024C47.0736 66.2463 47.6054 65.8298 48.2718 65.553C48.9382 65.2787 49.675 65.1416 50.4824 65.1416C51.7383 65.1416 52.766 65.4645 53.5657 66.1104C54.3679 66.7589 54.769 67.7302 54.769 69.0246V69.2552H52.2509V69.0822C52.2509 68.5184 52.0907 68.0724 51.7703 67.7443C51.4499 67.4188 51.0142 67.2561 50.4632 67.2561C49.8865 67.2561 49.4341 67.3868 49.1061 67.6482C48.7806 67.9122 48.6178 68.2492 48.6178 68.6593C48.6178 69.0182 48.7267 69.3129 48.9446 69.5436C49.1624 69.7742 49.4341 69.9601 49.7596 70.101C50.0877 70.242 50.5401 70.4022 51.1167 70.5816C51.9497 70.8507 52.6225 71.1096 53.1351 71.3582C53.6477 71.6094 54.0898 71.9976 54.4615 72.5231C54.8331 73.0485 55.0189 73.7405 55.0189 74.5991C55.0189 76.0472 54.605 77.1083 53.7771 77.7824C52.9519 78.4539 51.8152 78.7896 50.3671 78.7896ZM62.9924 78.5589L60.1283 65.3723H62.5695L64.1458 73.4842C64.2227 73.843 64.306 74.4581 64.3957 75.3296H64.4726C64.5623 74.4581 64.6456 73.843 64.7225 73.4842L66.3179 65.3723H69.1052L70.6815 73.4842C70.7455 73.8174 70.8288 74.4325 70.9313 75.3296H71.0082C71.0851 74.5094 71.1684 73.8943 71.2581 73.4842L72.8728 65.3723H74.9873L72.1231 78.5589H69.6434L67.8557 70.1587C67.7532 69.7358 67.6635 69.1143 67.5866 68.2941H67.5097C67.4072 69.1783 67.3175 69.7999 67.2406 70.1587L65.4721 78.5589H62.9924ZM76.1599 78.5589V65.3723H84.5601V67.5636H78.6204V70.7161H83.7143V72.9075H78.6204V76.3676H84.6755V78.5589H76.1599ZM86.6746 78.5589V65.3723H92.3453C93.0373 65.3723 93.655 65.5094 94.1983 65.7836C94.7443 66.0604 95.171 66.4449 95.4786 66.937C95.7861 67.4316 95.9399 67.9994 95.9399 68.6401C95.9399 69.3706 95.7502 70.0011 95.3709 70.5316C94.9941 71.0647 94.511 71.4338 93.9215 71.6388V71.7157C94.6007 71.9208 95.1582 72.318 95.5939 72.9075C96.0296 73.497 96.2475 74.2018 96.2475 75.022C96.2475 75.7396 96.0706 76.3637 95.7169 76.8943C95.3658 77.4274 94.8955 77.8375 94.306 78.1245C93.7165 78.4141 93.0629 78.5589 92.3453 78.5589H86.6746ZM89.1351 70.7161H91.6725C92.2363 70.7161 92.6682 70.5624 92.9681 70.2548C93.2705 69.9472 93.4217 69.5564 93.4217 69.0822C93.4217 68.5953 93.2744 68.2198 92.9796 67.9558C92.6849 67.6944 92.2876 67.5636 91.7878 67.5636H89.1351V70.7161ZM89.1351 76.3676H91.9416C92.467 76.3676 92.8963 76.2228 93.2295 75.9331C93.5627 75.6461 93.7293 75.2399 93.7293 74.7144C93.7293 74.1762 93.5653 73.7366 93.2372 73.3958C92.9117 73.0575 92.4414 72.8883 91.8263 72.8883H89.1351V76.3676ZM106.412 78.7896C105.579 78.7896 104.817 78.632 104.125 78.3167C103.433 78.0041 102.882 77.5401 102.472 76.925C102.062 76.3099 101.857 75.5666 101.857 74.6952L101.876 74.2723H104.432L104.413 74.5799C104.413 75.2206 104.599 75.7294 104.971 76.1061C105.342 76.4855 105.861 76.6751 106.528 76.6751C107.207 76.6751 107.711 76.5239 108.039 76.2215C108.364 75.9216 108.527 75.5538 108.527 75.1181C108.527 74.6824 108.411 74.3261 108.181 74.0493C107.95 73.7751 107.666 73.5611 107.327 73.4073C106.986 73.2535 106.508 73.0741 105.893 72.8691C105.086 72.6128 104.432 72.3565 103.933 72.1002C103.433 71.8439 103.007 71.453 102.656 70.9276C102.303 70.4022 102.126 69.7038 102.126 68.8323C102.126 68.0378 102.324 67.3612 102.722 66.8024C103.119 66.2463 103.651 65.8298 104.317 65.553C104.983 65.2787 105.72 65.1416 106.528 65.1416C107.784 65.1416 108.813 65.4645 109.615 66.1104C110.414 66.7589 110.814 67.7302 110.814 69.0246V69.2552H108.296V69.0822C108.296 68.5184 108.136 68.0724 107.816 67.7443C107.495 67.4188 107.059 67.2561 106.508 67.2561C105.932 67.2561 105.481 67.3868 105.155 67.6482C104.827 67.9122 104.663 68.2492 104.663 68.6593C104.663 69.0182 104.772 69.3129 104.99 69.5436C105.208 69.7742 105.481 69.9601 105.809 70.101C106.134 70.242 106.585 70.4022 107.162 70.5816C107.995 70.8507 108.668 71.1096 109.18 71.3582C109.693 71.6094 110.135 71.9976 110.507 72.5231C110.878 73.0485 111.064 73.7405 111.064 74.5991C111.064 76.0472 110.652 77.1083 109.826 77.7824C108.998 78.4539 107.86 78.7896 106.412 78.7896ZM112.948 78.5589V65.3723H121.348V67.5636H115.409V70.7161H120.502V72.9075H115.409V76.3676H121.464V78.5589H112.948ZM123.463 78.5589V65.3723H128.98C130.274 65.3723 131.27 65.7183 131.967 66.4103C132.667 67.1023 133.016 68.0122 133.016 69.1399C133.016 69.9344 132.82 70.6264 132.428 71.2159C132.039 71.8054 131.498 72.2411 130.806 72.5231L133.343 78.5589H130.671L128.48 73.0613H125.923V78.5589H123.463ZM125.923 70.8891H128.634C129.21 70.8891 129.642 70.7379 129.929 70.4355C130.219 70.1356 130.364 69.7038 130.364 69.1399C130.364 68.6401 130.229 68.2518 129.96 67.975C129.691 67.7008 129.281 67.5636 128.73 67.5636H125.923V70.8891ZM137.438 78.5589L133.42 65.3723H135.957L138.725 74.8105H138.802L141.532 65.3723H143.935L139.917 78.5589H137.438ZM144.892 78.5589V65.3723H147.353V78.5589H144.892ZM154.215 78.7896C152.523 78.7896 151.227 78.2219 150.324 77.0865C149.42 75.9536 148.967 74.2467 148.967 71.9656C148.967 69.6845 149.42 67.9763 150.324 66.8409C151.227 65.708 152.523 65.1416 154.215 65.1416C155.663 65.1416 156.833 65.5709 157.725 66.4295C158.614 67.2881 159.059 68.5696 159.059 70.274H156.541C156.541 69.2873 156.333 68.5376 155.918 68.025C155.5 67.5124 154.933 67.2561 154.215 67.2561C153.318 67.2561 152.643 67.6239 152.189 68.3595C151.733 69.0976 151.505 70.1395 151.505 71.485V72.4462C151.505 73.7918 151.739 74.8323 152.208 75.5679C152.675 76.3061 153.369 76.6751 154.292 76.6751C155.022 76.6751 155.599 76.4214 156.022 75.9139C156.445 75.409 156.656 74.6632 156.656 73.6764H159.059C159.059 75.3424 158.617 76.6111 157.733 77.4825C156.848 78.3539 155.676 78.7896 154.215 78.7896ZM160.847 78.5589V65.3723H169.247V67.5636H163.307V70.7161H168.401V72.9075H163.307V76.3676H169.362V78.5589H160.847ZM175.341 78.7896C174.508 78.7896 173.745 78.632 173.053 78.3167C172.361 78.0041 171.81 77.5401 171.4 76.925C170.99 76.3099 170.785 75.5666 170.785 74.6952L170.804 74.2723H173.361L173.341 74.5799C173.341 75.2206 173.527 75.7294 173.899 76.1061C174.271 76.4855 174.79 76.6751 175.456 76.6751C176.135 76.6751 176.637 76.5239 176.963 76.2215C177.291 75.9216 177.455 75.5538 177.455 75.1181C177.455 74.6824 177.34 74.3261 177.109 74.0493C176.878 73.7751 176.593 73.5611 176.252 73.4073C175.913 73.2535 175.437 73.0741 174.822 72.8691C174.014 72.6128 173.361 72.3565 172.861 72.1002C172.361 71.8439 171.934 71.453 171.581 70.9276C171.23 70.4022 171.054 69.7038 171.054 68.8323C171.054 68.0378 171.253 67.3612 171.65 66.8024C172.047 66.2463 172.579 65.8298 173.245 65.553C173.912 65.2787 174.649 65.1416 175.456 65.1416C176.712 65.1416 177.74 65.4645 178.539 66.1104C179.341 66.7589 179.743 67.7302 179.743 69.0246V69.2552H177.224V69.0822C177.224 68.5184 177.064 68.0724 176.744 67.7443C176.423 67.4188 175.988 67.2561 175.437 67.2561C174.86 67.2561 174.408 67.3868 174.08 67.6482C173.754 67.9122 173.591 68.2492 173.591 68.6593C173.591 69.0182 173.7 69.3129 173.918 69.5436C174.136 69.7742 174.408 69.9601 174.733 70.101C175.061 70.242 175.514 70.4022 176.09 70.5816C176.923 70.8507 177.596 71.1096 178.109 71.3582C178.621 71.6094 179.063 71.9976 179.435 72.5231C179.807 73.0485 179.992 73.7405 179.992 74.5991C179.992 76.0472 179.579 77.1083 178.751 77.7824C177.925 78.4539 176.789 78.7896 175.341 78.7896Z" fill="white"/>
</g>
</g>
<g clip-path="url(#clip6_27_2)">
<g clip-path="url(#clip7_27_2)">
<path d="M40.8456 88.2286C40.2707 88.2286 39.7706 88.1033 39.3452 87.8527C38.9198 87.6032 38.5938 87.2439 38.3673 86.7748C38.1397 86.3069 38.0259 85.7538 38.0259 85.1157C38.0259 84.4776 38.1397 83.9258 38.3673 83.4601C38.5938 82.9945 38.9198 82.6364 39.3452 82.3857C39.7706 82.1362 40.2707 82.0115 40.8456 82.0115C41.2652 82.0115 41.6504 82.0764 42.0011 82.2064C42.3517 82.3351 42.6564 82.526 42.9151 82.7789L42.6478 83.3222C42.3546 83.075 42.0672 82.8968 41.7855 82.7875C41.5038 82.6783 41.1934 82.6237 40.8542 82.6237C40.1874 82.6237 39.6717 82.8404 39.3073 83.2739C38.9416 83.7085 38.7588 84.3224 38.7588 85.1157C38.7588 85.9148 38.9416 86.5311 39.3073 86.9645C39.6717 87.3991 40.1874 87.6164 40.8542 87.6164C41.1934 87.6164 41.5038 87.5618 41.7855 87.4526C42.0672 87.3433 42.3546 87.1651 42.6478 86.9179L42.9151 87.4612C42.6564 87.7141 42.3517 87.905 42.0011 88.0338C41.6504 88.1637 41.2652 88.2286 40.8456 88.2286ZM46.3039 83.8568L46.3643 84.4604L45.9073 84.5035C45.4761 84.5438 45.164 84.6788 44.9708 84.9088C44.7788 85.1387 44.6828 85.4233 44.6828 85.7625V88.1596H43.9843V83.9603H44.6656V84.6932C44.9013 84.2046 45.364 83.9315 46.0539 83.874L46.3039 83.8568ZM50.4602 85.9091V86.1677H47.3904C47.4134 86.6564 47.5456 87.0254 47.7871 87.2749C48.0285 87.5256 48.37 87.6509 48.8115 87.6509C49.3001 87.6509 49.7491 87.4842 50.1584 87.1508L50.3912 87.6595C50.2072 87.832 49.9716 87.9682 49.6841 88.0682C49.3967 88.1694 49.1035 88.22 48.8046 88.22C48.1492 88.22 47.633 88.0274 47.2559 87.6423C46.8799 87.2571 46.692 86.7254 46.692 86.047C46.692 85.6159 46.7753 85.2347 46.942 84.9036C47.1087 84.5736 47.3427 84.3167 47.6439 84.1327C47.9463 83.9488 48.2901 83.8568 48.6752 83.8568C49.2329 83.8568 49.6698 84.039 49.9859 84.4035C50.3021 84.7691 50.4602 85.271 50.4602 85.9091ZM48.6821 84.4C48.3154 84.4 48.021 84.515 47.7991 84.745C47.5784 84.9749 47.4479 85.2997 47.4077 85.7193H49.8462C49.8359 85.2939 49.7301 84.9674 49.5289 84.7398C49.3277 84.5133 49.0454 84.4 48.6821 84.4ZM53.1919 83.8568C53.7266 83.8568 54.1249 83.993 54.3871 84.2655C54.6481 84.5392 54.7786 84.9548 54.7786 85.5124V88.1596H54.0974V87.4439C53.9881 87.6911 53.8214 87.882 53.5972 88.0165C53.373 88.1522 53.1143 88.22 52.8212 88.22C52.551 88.22 52.3026 88.1654 52.0761 88.0562C51.8485 87.9469 51.6686 87.7946 51.5363 87.5992C51.4041 87.4037 51.338 87.1881 51.338 86.9524C51.338 86.6363 51.4185 86.3902 51.5794 86.2143C51.7404 86.0395 52.0048 85.9131 52.3728 85.8349C52.7407 85.7579 53.2523 85.7193 53.9076 85.7193H54.0974V85.4348C54.0974 85.0841 54.0255 84.8295 53.8818 84.6708C53.7381 84.5133 53.5052 84.4345 53.1833 84.4345C52.7004 84.4345 52.2204 84.584 51.7433 84.8829L51.5105 84.3742C51.7289 84.219 51.9922 84.0936 52.3003 83.9982C52.6073 83.9039 52.9045 83.8568 53.1919 83.8568ZM52.916 87.6681C53.2609 87.6681 53.5443 87.5514 53.7662 87.318C53.987 87.0858 54.0974 86.7857 54.0974 86.4178V86.1677H53.9421C53.4363 86.1677 53.0511 86.189 52.7867 86.2316C52.5222 86.2752 52.3342 86.3471 52.2227 86.4471C52.11 86.5483 52.0537 86.6966 52.0537 86.8921C52.0537 87.1163 52.1359 87.3014 52.3003 87.4474C52.4636 87.5946 52.6688 87.6681 52.916 87.6681ZM57.9001 87.6595C58.0266 87.6595 58.153 87.6509 58.2795 87.6336L58.245 88.1855C58.1128 88.2085 57.9691 88.22 57.8139 88.22C57.308 88.22 56.9274 88.0878 56.6722 87.8234C56.4158 87.5589 56.2876 87.191 56.2876 86.7196V84.5121H55.4684V83.9603H56.2876V82.6841H56.986V83.9603H58.176V84.5121H56.986V86.6679C56.986 87.329 57.2907 87.6595 57.9001 87.6595ZM62.5047 85.9091V86.1677H59.435C59.458 86.6564 59.5902 87.0254 59.8316 87.2749C60.0731 87.5256 60.4151 87.6509 60.8578 87.6509C61.3464 87.6509 61.7948 87.4842 62.2029 87.1508L62.4358 87.6595C62.2518 87.832 62.0161 87.9682 61.7287 88.0682C61.4412 88.1694 61.1481 88.22 60.8491 88.22C60.1938 88.22 59.6776 88.0274 59.3004 87.6423C58.9245 87.2571 58.7365 86.7254 58.7365 86.047C58.7365 85.6159 58.8199 85.2347 58.9866 84.9036C59.1533 84.5736 59.3873 84.3167 59.6885 84.1327C59.9909 83.9488 60.3346 83.8568 60.7198 83.8568C61.2774 83.8568 61.7143 84.039 62.0305 84.4035C62.3467 84.7691 62.5047 85.271 62.5047 85.9091ZM60.7284 84.4C60.3605 84.4 60.0656 84.515 59.8437 84.745C59.6229 84.9749 59.4925 85.2997 59.4522 85.7193H61.8925C61.881 85.2939 61.7747 84.9674 61.5735 84.7398C61.3723 84.5133 61.0906 84.4 60.7284 84.4ZM67.3405 87.4008L68.7633 83.9689H69.4617L66.9783 89.7118H66.2626L66.9697 88.1079L65.1934 83.9689H65.935L67.3405 87.4008ZM71.8762 88.22C71.4795 88.22 71.1306 88.1309 70.8293 87.9527C70.527 87.7745 70.2942 87.5198 70.1309 87.1887C69.9665 86.8587 69.8843 86.4753 69.8843 86.0384C69.8843 85.6015 69.9665 85.2175 70.1309 84.8864C70.2942 84.5564 70.527 84.3023 70.8293 84.1241C71.1306 83.9459 71.4795 83.8568 71.8762 83.8568C72.2728 83.8568 72.6235 83.9459 72.9282 84.1241C73.2329 84.3023 73.4674 84.5564 73.6318 84.8864C73.7951 85.2175 73.8767 85.6015 73.8767 86.0384C73.8767 86.4753 73.7951 86.8587 73.6318 87.1887C73.4674 87.5198 73.2329 87.7745 72.9282 87.9527C72.6235 88.1309 72.2728 88.22 71.8762 88.22ZM71.8762 87.6423C72.2901 87.6423 72.608 87.5055 72.8299 87.2318C73.0506 86.9593 73.161 86.5615 73.161 86.0384C73.161 85.5268 73.0489 85.1313 72.8247 84.8519C72.6005 84.5736 72.2843 84.4345 71.8762 84.4345C71.468 84.4345 71.1518 84.5736 70.9277 84.8519C70.7035 85.1313 70.5914 85.5268 70.5914 86.0384C70.5914 86.5558 70.7023 86.9524 70.9242 87.2284C71.1449 87.5043 71.4623 87.6423 71.8762 87.6423ZM77.757 83.9603H78.4555V88.1596H77.7743V87.4439C77.6421 87.6969 77.4564 87.8895 77.2172 88.0217C76.9792 88.1539 76.7108 88.22 76.4119 88.22C75.9117 88.22 75.5352 88.0803 75.2822 87.8009C75.0293 87.5227 74.9028 87.1105 74.9028 86.5644V83.9603H75.6013V86.5472C75.6013 86.9208 75.676 87.195 75.8255 87.3698C75.975 87.5457 76.2107 87.6336 76.5326 87.6336C76.9005 87.6336 77.1965 87.5141 77.4207 87.2749C77.6449 87.0369 77.757 86.7225 77.757 86.3316V83.9603ZM82.0771 83.8568L82.1375 84.4604L81.6805 84.5035C81.2493 84.5438 80.9372 84.6788 80.744 84.9088C80.552 85.1387 80.456 85.4233 80.456 85.7625V88.1596H79.7576V83.9603H80.4388V84.6932C80.6745 84.2046 81.1372 83.9315 81.8271 83.874L82.0771 83.8568ZM87.1371 83.8568C87.505 83.8568 87.8298 83.9459 88.1115 84.1241C88.3932 84.3023 88.6116 84.5552 88.7668 84.8829C88.922 85.2106 88.9997 85.59 88.9997 86.0212C88.9997 86.458 88.922 86.8415 88.7668 87.1715C88.6116 87.5026 88.3932 87.7601 88.1115 87.9441C87.8298 88.128 87.505 88.22 87.1371 88.22C86.8094 88.22 86.5231 88.1481 86.2782 88.0044C86.0345 87.8607 85.8494 87.6566 85.7229 87.3922V88.1596H85.0245V82.0805H85.7229V84.6846C85.8494 84.4202 86.0345 84.2161 86.2782 84.0724C86.5231 83.9286 86.8094 83.8568 87.1371 83.8568ZM86.9991 87.6423C87.4073 87.6423 87.7235 87.4997 87.9477 87.2146C88.1718 86.9306 88.2839 86.5328 88.2839 86.0212C88.2839 85.521 88.1718 85.133 87.9477 84.8571C87.7235 84.5811 87.4073 84.4432 86.9991 84.4432C86.591 84.4432 86.2765 84.5811 86.0558 84.8571C85.8339 85.133 85.7229 85.5268 85.7229 86.0384C85.7229 86.55 85.8339 86.945 86.0558 87.2232C86.2765 87.5026 86.591 87.6423 86.9991 87.6423ZM92.88 83.9603H93.5785V88.1596H92.8972V87.4439C92.765 87.6969 92.5793 87.8895 92.3402 88.0217C92.1022 88.1539 91.8337 88.22 91.5348 88.22C91.0347 88.22 90.6581 88.0803 90.4052 87.8009C90.1523 87.5227 90.0258 87.1105 90.0258 86.5644V83.9603H90.7242V86.5472C90.7242 86.9208 90.799 87.195 90.9484 87.3698C91.0979 87.5457 91.3336 87.6336 91.6555 87.6336C92.0234 87.6336 92.3195 87.5141 92.5437 87.2749C92.7679 87.0369 92.88 86.7225 92.88 86.3316V83.9603ZM96.3033 88.22C95.5962 88.22 95.0357 88.0389 94.6218 87.6768L94.8546 87.1594C95.0788 87.3376 95.3071 87.4652 95.5393 87.5422C95.7727 87.6204 96.036 87.6595 96.3292 87.6595C96.6396 87.6595 96.8764 87.6061 97.0397 87.4991C97.2041 87.3934 97.2863 87.2399 97.2863 87.0387C97.2863 86.872 97.2317 86.7397 97.1225 86.642C97.0133 86.5443 96.8322 86.4667 96.5792 86.4092L95.8722 86.2453C95.5157 86.1649 95.2427 86.0269 95.053 85.8314C94.8633 85.636 94.7684 85.3946 94.7684 85.1071C94.7684 84.7335 94.915 84.4317 95.2082 84.2017C95.5014 83.9718 95.8923 83.8568 96.3809 83.8568C96.6741 83.8568 96.9529 83.9039 97.2173 83.9982C97.4818 84.0936 97.7031 84.2305 97.8813 84.4087L97.6485 84.9174C97.2633 84.5897 96.8408 84.4259 96.3809 84.4259C96.0877 84.4259 95.8589 84.4817 95.6945 84.5932C95.5313 84.7059 95.4496 84.8628 95.4496 85.064C95.4496 85.2307 95.4996 85.3641 95.5997 85.4641C95.7008 85.5653 95.8635 85.6417 96.0877 85.6935L96.8034 85.8659C97.1943 85.9579 97.4847 86.097 97.6744 86.2833C97.8641 86.4707 97.9589 86.7139 97.9589 87.0128C97.9589 87.3807 97.8106 87.6739 97.514 87.8923C97.2185 88.1108 96.8149 88.22 96.3033 88.22ZM99.7163 88.1596H99.0178V83.9603H99.7163V88.1596ZM98.9488 82.9255V82.1408H99.7939V82.9255H98.9488ZM103.131 83.8568C104.137 83.8568 104.64 84.4115 104.64 85.521V88.1596H103.942V85.5641C103.942 85.1732 103.866 84.8887 103.714 84.7105C103.561 84.5323 103.318 84.4432 102.984 84.4432C102.599 84.4432 102.292 84.561 102.062 84.7967C101.832 85.0324 101.717 85.3514 101.717 85.7538V88.1596H101.018V83.9603H101.708V84.6501C101.846 84.3914 102.039 84.1942 102.286 84.0586C102.533 83.924 102.815 83.8568 103.131 83.8568ZM109.434 85.9091V86.1677H106.365C106.388 86.6564 106.52 87.0254 106.761 87.2749C107.003 87.5256 107.345 87.6509 107.787 87.6509C108.276 87.6509 108.724 87.4842 109.133 87.1508L109.365 87.6595C109.181 87.832 108.946 87.9682 108.658 88.0682C108.371 88.1694 108.078 88.22 107.779 88.22C107.123 88.22 106.607 88.0274 106.23 87.6423C105.854 87.2571 105.666 86.7254 105.666 86.047C105.666 85.6159 105.749 85.2347 105.916 84.9036C106.083 84.5736 106.317 84.3167 106.618 84.1327C106.92 83.9488 107.264 83.8568 107.649 83.8568C108.207 83.8568 108.644 84.039 108.96 84.4035C109.276 84.7691 109.434 85.271 109.434 85.9091ZM107.658 84.4C107.29 84.4 106.995 84.515 106.773 84.745C106.553 84.9749 106.422 85.2997 106.382 85.7193H108.822C108.811 85.2939 108.704 84.9674 108.503 84.7398C108.302 84.5133 108.02 84.4 107.658 84.4ZM111.883 88.22C111.176 88.22 110.616 88.0389 110.202 87.6768L110.435 87.1594C110.659 87.3376 110.887 87.4652 111.119 87.5422C111.353 87.6204 111.616 87.6595 111.909 87.6595C112.22 87.6595 112.456 87.6061 112.62 87.4991C112.784 87.3934 112.866 87.2399 112.866 87.0387C112.866 86.872 112.812 86.7397 112.702 86.642C112.593 86.5443 112.412 86.4667 112.159 86.4092L111.452 86.2453C111.096 86.1649 110.823 86.0269 110.633 85.8314C110.443 85.636 110.348 85.3946 110.348 85.1071C110.348 84.7335 110.495 84.4317 110.788 84.2017C111.081 83.9718 111.472 83.8568 111.961 83.8568C112.254 83.8568 112.533 83.9039 112.797 83.9982C113.062 84.0936 113.283 84.2305 113.461 84.4087L113.228 84.9174C112.843 84.5897 112.421 84.4259 111.961 84.4259C111.668 84.4259 111.439 84.4817 111.274 84.5932C111.111 84.7059 111.03 84.8628 111.03 85.064C111.03 85.2307 111.08 85.3641 111.18 85.4641C111.281 85.5653 111.443 85.6417 111.668 85.6935L112.383 85.8659C112.774 85.9579 113.065 86.097 113.254 86.2833C113.444 86.4707 113.539 86.7139 113.539 87.0128C113.539 87.3807 113.391 87.6739 113.094 87.8923C112.798 88.1108 112.395 88.22 111.883 88.22ZM116.021 88.22C115.313 88.22 114.753 88.0389 114.339 87.6768L114.572 87.1594C114.796 87.3376 115.025 87.4652 115.258 87.5422C115.491 87.6204 115.753 87.6595 116.046 87.6595C116.357 87.6595 116.594 87.6061 116.759 87.4991C116.922 87.3934 117.004 87.2399 117.004 87.0387C117.004 86.872 116.949 86.7397 116.84 86.642C116.731 86.5443 116.549 86.4667 116.297 86.4092L115.589 86.2453C115.233 86.1649 114.96 86.0269 114.77 85.8314C114.581 85.636 114.486 85.3946 114.486 85.1071C114.486 84.7335 114.632 84.4317 114.925 84.2017C115.219 83.9718 115.61 83.8568 116.098 83.8568C116.391 83.8568 116.67 83.9039 116.935 83.9982C117.199 84.0936 117.42 84.2305 117.599 84.4087L117.366 84.9174C116.981 84.5897 116.558 84.4259 116.098 84.4259C115.805 84.4259 115.577 84.4817 115.414 84.5932C115.249 84.7059 115.167 84.8628 115.167 85.064C115.167 85.2307 115.217 85.3641 115.319 85.4641C115.419 85.5653 115.581 85.6417 115.805 85.6935L116.521 85.8659C116.912 85.9579 117.202 86.097 117.392 86.2833C117.581 86.4707 117.676 86.7139 117.676 87.0128C117.676 87.3807 117.528 87.6739 117.233 87.8923C116.936 88.1108 116.532 88.22 116.021 88.22ZM122.807 87.6595C122.933 87.6595 123.06 87.6509 123.186 87.6336L123.152 88.1855C123.02 88.2085 122.876 88.22 122.721 88.22C122.215 88.22 121.834 88.0878 121.577 87.8234C121.322 87.5589 121.194 87.191 121.194 86.7196V84.5121H120.375V83.9603H121.194V82.6841H121.893V83.9603H123.083V84.5121H121.893V86.6679C121.893 87.329 122.197 87.6595 122.807 87.6595ZM125.635 88.22C125.239 88.22 124.889 88.1309 124.587 87.9527C124.285 87.7745 124.053 87.5198 123.888 87.1887C123.725 86.8587 123.643 86.4753 123.643 86.0384C123.643 85.6015 123.725 85.2175 123.888 84.8864C124.053 84.5564 124.285 84.3023 124.587 84.1241C124.889 83.9459 125.239 83.8568 125.635 83.8568C126.032 83.8568 126.382 83.9459 126.687 84.1241C126.992 84.3023 127.226 84.5564 127.389 84.8864C127.553 85.2175 127.636 85.6015 127.636 86.0384C127.636 86.4753 127.553 86.8587 127.389 87.1887C127.226 87.5198 126.992 87.7745 126.687 87.9527C126.382 88.1309 126.032 88.22 125.635 88.22ZM125.635 87.6423C126.049 87.6423 126.366 87.5055 126.587 87.2318C126.809 86.9593 126.92 86.5615 126.92 86.0384C126.92 85.5268 126.808 85.1313 126.584 84.8519C126.359 84.5736 126.043 84.4345 125.635 84.4345C125.227 84.4345 124.911 84.5736 124.687 84.8519C124.462 85.1313 124.35 85.5268 124.35 86.0384C124.35 86.5558 124.461 86.9524 124.681 87.2284C124.903 87.5043 125.221 87.6423 125.635 87.6423ZM131.704 82.0805H132.402V88.1596H131.704V87.3922C131.578 87.6566 131.392 87.8607 131.149 88.0044C130.904 88.1481 130.618 88.22 130.29 88.22C129.922 88.22 129.597 88.128 129.315 87.9441C129.034 87.7601 128.815 87.5026 128.66 87.1715C128.505 86.8415 128.427 86.458 128.427 86.0212C128.427 85.59 128.505 85.2106 128.66 84.8829C128.815 84.5552 129.034 84.3023 129.315 84.1241C129.597 83.9459 129.922 83.8568 130.29 83.8568C130.618 83.8568 130.904 83.9286 131.149 84.0724C131.392 84.2161 131.578 84.4202 131.704 84.6846V82.0805ZM130.428 87.6423C130.836 87.6423 131.151 87.5026 131.373 87.2232C131.594 86.945 131.704 86.55 131.704 86.0384C131.704 85.5268 131.594 85.133 131.373 84.8571C131.151 84.5811 130.836 84.4432 130.428 84.4432C130.02 84.4432 129.702 84.5811 129.476 84.8571C129.248 85.133 129.134 85.521 129.134 86.0212C129.134 86.5328 129.248 86.9306 129.476 87.2146C129.702 87.4997 130.02 87.6423 130.428 87.6423ZM135.403 83.8568C135.938 83.8568 136.336 83.993 136.598 84.2655C136.859 84.5392 136.99 84.9548 136.99 85.5124V88.1596H136.309V87.4439C136.199 87.6911 136.033 87.882 135.809 88.0165C135.584 88.1522 135.326 88.22 135.032 88.22C134.762 88.22 134.513 88.1654 134.286 88.0562C134.059 87.9469 133.88 87.7946 133.748 87.5992C133.615 87.4037 133.549 87.1881 133.549 86.9524C133.549 86.6363 133.63 86.3902 133.791 86.2143C133.952 86.0395 134.216 85.9131 134.584 85.8349C134.952 85.7579 135.464 85.7193 136.119 85.7193H136.309V85.4348C136.309 85.0841 136.237 84.8295 136.093 84.6708C135.949 84.5133 135.717 84.4345 135.395 84.4345C134.912 84.4345 134.432 84.584 133.955 84.8829L133.722 84.3742C133.94 84.219 134.203 84.0936 134.51 83.9982C134.818 83.9039 135.116 83.8568 135.403 83.8568ZM135.127 87.6681C135.472 87.6681 135.755 87.5514 135.976 87.318C136.198 87.0858 136.309 86.7857 136.309 86.4178V86.1677H136.153C135.648 86.1677 135.262 86.189 134.998 86.2316C134.734 86.2752 134.545 86.3471 134.432 86.4471C134.321 86.5483 134.265 86.6966 134.265 86.8921C134.265 87.1163 134.347 87.3014 134.51 87.4474C134.674 87.5946 134.88 87.6681 135.127 87.6681ZM139.853 87.4008L141.275 83.9689H141.974L139.491 89.7118H138.775L139.482 88.1079L137.706 83.9689H138.447L139.853 87.4008Z" fill="#00D1CD"/>
</g>
</g>
</g>
</g>
<g clip-path="url(#clip8_27_2)">
<g clip-path="url(#clip9_27_2)">
<path d="M60.6514 29.3488C60.6514 13.14 73.7914 0 90.0001 0C106.209 0 119.349 13.14 119.349 29.3488C119.349 45.5575 106.209 58.6975 90.0001 58.6975C73.7914 58.6975 60.6514 45.5575 60.6514 29.3488ZM90.0001 57.4669C105.529 57.4669 118.118 44.878 118.118 29.3488C118.118 13.8195 105.529 1.23058 90.0001 1.23058C74.4708 1.23058 61.8819 13.8195 61.8819 29.3488C61.8819 44.878 74.4708 57.4669 90.0001 57.4669Z" fill="white"/>
<g clip-path="url(#clip10_27_2)">
<g clip-path="url(#clip11_27_2)">
<path d="M83.5508 25.625V33.0729L89.9999 36.7961L96.4501 33.0732V25.625L89.9999 21.9014L83.5508 25.625ZM93.7307 31.5028L89.9999 33.6564L86.2698 31.5028V27.195L89.9999 25.0411L93.7307 27.195V31.5028Z" fill="#00D1CD"/>
<path d="M89.9997 13.3994L76.187 21.3745V37.3237L89.9997 45.2985L103.813 37.3237V21.3745L89.9997 13.3994ZM100.992 35.6946L89.9997 42.0406L79.0088 35.6946V23.0026L89.9997 16.6566L100.992 23.0026V35.6946Z" fill="#00D1CD"/>
<path d="M79.8818 23.5065V35.1905L89.9996 41.0322L100.118 35.1905V23.5065L89.9996 17.6648L79.8818 23.5065ZM97.3229 33.5771L89.9996 37.8044L82.6774 33.5771V25.1209L89.9996 20.8929L97.3229 25.1209V33.5771Z" fill="#00D1CD"/>
</g>
</g>
</g>
</g>
</g>
</g>
<defs>
<clipPath id="clip0_27_2">
<rect width="180" height="89.7119" fill="white"/>
</clipPath>
<clipPath id="clip1_27_2">
<rect width="180" height="89.7119" fill="white"/>
</clipPath>
<clipPath id="clip2_27_2">
<rect width="180" height="24.5703" fill="white" transform="translate(0 65.1416)"/>
</clipPath>
<clipPath id="clip3_27_2">
<rect width="180" height="24.5703" fill="white" transform="translate(0 65.1416)"/>
</clipPath>
<clipPath id="clip4_27_2">
<rect width="180" height="13.648" fill="white" transform="translate(0 65.1416)"/>
</clipPath>
<clipPath id="clip5_27_2">
<rect width="180" height="13.648" fill="white" transform="translate(0 65.1416)"/>
</clipPath>
<clipPath id="clip6_27_2">
<rect width="111.24" height="7.70031" fill="white" transform="translate(34.3799 82.0115)"/>
</clipPath>
<clipPath id="clip7_27_2">
<rect width="103.958" height="7.70031" fill="white" transform="translate(38.0205 82.0115)"/>
</clipPath>
<clipPath id="clip8_27_2">
<rect width="58.6977" height="58.6977" fill="white" transform="translate(60.6514)"/>
</clipPath>
<clipPath id="clip9_27_2">
<rect width="58.6977" height="58.6977" fill="white" transform="translate(60.6514)"/>
</clipPath>
<clipPath id="clip10_27_2">
<rect width="27.6261" height="31.8991" fill="white" transform="translate(76.187 13.3994)"/>
</clipPath>
<clipPath id="clip11_27_2">
<rect width="27.6261" height="31.8991" fill="white" transform="translate(76.187 13.3994)"/>
</clipPath>
</defs>
</svg>
